<svg width="207" height="60" viewBox="0 0 207 60" fill="none" xmlns="http://www.w3.org/2000/svg">
<g clip-path="url(#clip0_1810_14132)">
<path d="M100.127 37.0745H89.2396L86.5066 45.3366C86.4661 45.5839 86.3004 45.7096 86.0093 45.7096H81.0849C80.7534 45.7096 80.6726 45.5434 80.7534 45.2515L90.5253 17.2704C90.7315 16.8123 90.8972 15.9001 90.9377 14.615C90.9377 14.4083 91.063 14.3231 91.2692 14.3231H98.0169C98.1827 14.3231 98.308 14.4042 98.3889 14.5704L109.277 45.292C109.357 45.5839 109.277 45.7055 108.985 45.7055H103.439C103.232 45.7055 103.067 45.5799 102.982 45.3731L100.127 37.0745ZM90.4404 32.5096H98.8861C98.7608 32.0515 98.0978 30.061 96.897 26.5299C95.7367 22.9583 94.9523 20.5096 94.5804 19.1839H94.5399C94.2084 20.8015 92.8419 25.2447 90.4404 32.5096Z" fill="#6F6F6F"/>
<path d="M122.525 46.1677C118.883 46.1677 115.984 45.1704 113.748 43.2204C111.553 41.2258 110.477 38.2785 110.477 34.419C110.477 30.9325 111.638 28.0663 113.995 25.7839C116.356 23.5015 119.542 22.3379 123.516 22.3379C124.591 22.3379 125.505 22.419 126.164 22.6298V12.0852C126.164 11.8785 126.289 11.7528 126.496 11.7528H131.836C132.042 11.7528 132.127 11.8339 132.127 12.0447V40.4393C132.127 40.9785 132.168 42.0569 132.253 43.6339C132.293 43.8407 132.172 44.0069 131.962 44.0474C129.026 45.4623 125.877 46.1677 122.525 46.1677ZM126.128 41.2663V26.9839C125.424 26.6515 124.514 26.4852 123.395 26.4852C121.325 26.4852 119.667 27.1501 118.426 28.5204C117.185 29.8501 116.562 31.715 116.562 34.1677C116.562 36.742 117.185 38.6515 118.426 39.8961C119.667 41.1406 121.24 41.765 123.188 41.765C124.47 41.8096 125.424 41.6434 126.128 41.2663Z" fill="#6F6F6F"/>
<path d="M147.24 22.338C150.802 22.338 153.616 23.4569 155.646 25.6988C157.675 27.9407 158.71 30.7623 158.71 34.1677C158.71 37.861 157.635 40.8083 155.524 42.9691C153.414 45.0853 150.596 46.1637 147.163 46.1637C143.355 46.1637 140.497 45.0002 138.511 42.7177C136.522 40.3948 135.572 37.5691 135.572 34.2488C135.572 30.7623 136.648 27.8961 138.758 25.6542C140.905 23.4569 143.723 22.338 147.24 22.338ZM146.994 26.4488C145.381 26.4488 144.054 27.1542 143.06 28.5245C142.065 29.8948 141.568 31.7637 141.568 34.1718C141.568 36.5799 142.065 38.4894 143.06 39.9002C144.054 41.311 145.461 42.0164 147.24 42.0164C148.773 42.0164 150.054 41.3515 151.089 40.0664C152.124 38.7367 152.621 36.7867 152.621 34.2123C152.621 31.8448 152.165 29.9799 151.214 28.565C150.305 27.1542 148.898 26.4488 146.994 26.4488Z" fill="#6F6F6F"/>
<path d="M162.434 11.7529H167.69C167.936 11.7529 168.062 11.8786 168.062 12.1259V23.2097C169.594 22.63 171.207 22.3786 172.945 22.3786C176.216 22.3786 178.824 23.4164 180.769 25.5327C182.758 27.6083 183.708 30.3083 183.708 33.5881C183.708 37.5327 182.507 40.6056 180.065 42.8881C177.623 45.13 174.724 46.2489 171.328 46.2489C167.811 46.2489 164.827 45.6691 162.345 44.4651C162.139 44.384 162.054 44.2178 162.054 44.007V12.0813C162.102 11.834 162.187 11.7529 162.434 11.7529ZM177.627 34.1273C177.627 31.7191 177.09 29.8948 175.97 28.6462C174.894 27.4016 173.443 26.7773 171.583 26.7773C170.216 26.7773 169.016 27.0246 168.021 27.5232V41.2624C168.931 41.761 170.132 42.0083 171.623 42.0083C173.281 42.0083 174.688 41.3435 175.844 39.9732C177.049 38.611 177.627 36.661 177.627 34.1273Z" fill="#6F6F6F"/>
<path d="M201.683 35.3313H192.242C192.283 37.2407 192.865 38.7772 194.021 39.9407C195.222 41.0597 196.92 41.6434 199.196 41.6434C201.432 41.6434 203.377 41.2705 205.034 40.4799C205.241 40.3989 205.325 40.4799 205.325 40.7272V44.2543C205.325 44.5462 205.245 44.7124 205.034 44.834C203.045 45.7461 200.688 46.2043 197.955 46.2043C195.845 46.2043 194.021 45.8718 192.449 45.207C190.876 44.5421 189.675 43.6705 188.806 42.507C187.937 41.388 187.274 40.1394 186.817 38.8137C186.404 37.4434 186.194 36.0326 186.194 34.4961C186.194 31.0907 187.189 28.188 189.133 25.861C191.122 23.4934 193.851 22.334 197.288 22.334C200.559 22.334 203.001 23.2907 204.614 25.2407C206.227 27.1907 207.056 29.4732 207.056 32.0921C207.056 33.0489 206.975 33.961 206.85 34.7921C206.809 34.9989 206.684 35.1245 206.478 35.1651C205.617 35.2907 203.999 35.3313 201.683 35.3313ZM192.202 31.6786H198.869C200.361 31.6786 201.185 31.638 201.351 31.5975C201.392 31.4718 201.392 31.2651 201.392 30.9326C201.392 29.7286 201.06 28.6907 200.357 27.738C199.694 26.7813 198.618 26.3272 197.086 26.3272C195.594 26.3272 194.438 26.8259 193.609 27.8637C192.821 28.857 192.368 30.1421 192.202 31.6786Z" fill="#6F6F6F"/>
<path d="M39.1475 2.45288H62.0387V57.4583L39.1475 2.45288Z" fill="#6F6F6F"/>
<path d="M22.9997 2.45288H0.0639648V57.4583L22.9997 2.45288Z" fill="#6F6F6F"/>
<path d="M31.0737 22.7109L45.6445 57.4582H36.0829L31.7367 46.3744H21.0552L31.0737 22.7109Z" fill="#6F6F6F"/>
</g>
<defs>
<clipPath id="clip0_1810_14132">
<rect width="207" height="60" fill="white"/>
</clipPath>
</defs>
</svg>
