<svg width="211" height="40" viewBox="0 0 211 40" fill="none" xmlns="http://www.w3.org/2000/svg">
<path fill-rule="evenodd" clip-rule="evenodd" d="M97.9632 14.5782V10.7346C97.9632 10.1525 98.4087 9.76039 98.9374 9.76039H116.153C116.706 9.76039 117.145 10.1584 117.145 10.7287V14.0198C117.145 14.5723 116.676 15.2911 115.85 16.4376L106.933 29.1683C110.242 29.0911 113.747 29.5842 116.753 31.2772C117.43 31.6574 117.615 32.2218 117.668 32.7742V36.8733C117.668 37.4376 117.05 38.0911 116.403 37.7525C111.104 34.9782 104.07 34.6752 98.2127 37.7881C97.6127 38.1089 96.9889 37.4614 96.9889 36.897V33C96.9889 32.3762 97.0008 31.3129 97.6305 30.3624L107.961 15.5406H98.9671C98.4146 15.5406 97.9751 15.1485 97.9751 14.5723L97.9632 14.5782ZM35.1711 38.5663H29.9315C29.4325 38.5366 29.0345 38.1564 28.9929 37.6812V10.8C28.9929 10.2594 29.4503 9.83168 30.0087 9.83168H34.8859C35.3968 9.85544 35.8067 10.2416 35.8364 10.7346V14.2455H35.9374C37.2087 10.8535 39.6028 9.26733 42.8285 9.26733C46.0543 9.26733 48.1572 10.8535 49.6245 14.2455C50.8958 10.8535 53.777 9.26733 56.8602 9.26733C59.0582 9.26733 61.4582 10.1703 62.9196 12.2079C64.583 14.4713 64.2384 17.7505 64.2384 20.6376V37.598C64.2384 38.1327 63.781 38.5663 63.2226 38.5663H57.9889C57.4661 38.5307 57.0503 38.1148 57.0503 37.604V23.3525C57.0503 22.2238 57.1453 19.3901 56.9018 18.3208C56.5097 16.5089 55.3394 16.004 53.8246 16.004C52.5533 16.004 51.2345 16.8535 50.6939 18.2079C50.1533 19.5683 50.2067 21.8257 50.2067 23.3525V37.598C50.2067 38.1327 49.7552 38.5663 49.1968 38.5663H43.9632C43.4404 38.5307 43.0246 38.1148 43.0246 37.604V23.3525C43.0246 20.3525 43.5057 15.9445 39.7929 15.9445C36.08 15.9445 36.175 20.2455 36.175 23.3525V37.598C36.175 38.1327 35.7236 38.5663 35.1651 38.5663H35.1711ZM131.967 9.26733C139.737 9.26733 143.943 15.9446 143.943 24.4277C143.943 32.9109 139.298 39.1366 131.967 39.1366C124.636 39.1366 120.187 32.4594 120.187 24.1485C120.187 15.8376 124.393 9.27326 131.967 9.27326V9.26733ZM132.015 14.7564C128.153 14.7564 127.91 20.0139 127.91 23.299C127.91 26.5842 127.862 33.5941 131.967 33.5941C136.072 33.5941 136.221 27.9386 136.221 24.4871C136.221 22.2238 136.126 19.5089 135.436 17.3584C134.848 15.4931 133.678 14.7564 132.015 14.7564ZM154.025 38.5663H148.809C148.286 38.5307 147.87 38.1148 147.87 37.604V10.7109C147.906 10.2178 148.339 9.83168 148.868 9.83168H153.728C154.185 9.85544 154.559 10.1644 154.66 10.5861V14.697H154.761C156.229 11.0198 158.278 9.26733 161.896 9.26733C164.242 9.26733 166.541 10.1168 168.009 12.4337C169.375 14.5842 169.375 18.202 169.375 20.804V37.7168C169.316 38.1921 168.888 38.5663 168.371 38.5663H163.12C162.632 38.5366 162.246 38.1802 162.187 37.7168V23.1208C162.187 20.1802 162.531 15.8792 158.914 15.8792C157.642 15.8792 156.466 16.7287 155.884 18.0297C155.153 19.6693 155.052 21.3089 155.052 23.1208V37.5921C155.04 38.1267 154.589 38.5604 154.031 38.5604L154.025 38.5663ZM172.648 36.4337C172.648 35.0792 173.801 33.9861 175.227 33.9861C176.652 33.9861 177.805 35.0851 177.805 36.4337C177.805 37.7822 176.652 38.8812 175.227 38.8812C173.801 38.8812 172.648 37.7822 172.648 36.4337ZM84.2404 25.7287C84.2404 27.7723 84.2879 29.4713 83.2602 31.2832C82.4285 32.7564 81.1038 33.6653 79.6364 33.6653C77.6285 33.6653 76.4523 32.1327 76.4523 29.8693C76.4523 25.4079 80.4562 24.6 84.2404 24.6V25.7346V25.7287ZM89.5216 38.495C89.177 38.804 88.678 38.8277 88.2859 38.6198C86.5453 37.1762 86.2364 36.5049 85.2859 35.1327C82.4107 38.0614 80.3731 38.9406 76.6483 38.9406C72.2404 38.9406 68.8067 36.2198 68.8067 30.7782C68.8067 26.5247 71.1117 23.6376 74.3909 22.2178C77.2305 20.9703 81.1988 20.7445 84.2404 20.4059V19.7287C84.2404 18.4812 84.3414 17.0079 83.6048 15.9327C82.9691 14.9703 81.7453 14.5723 80.6642 14.5723C78.6681 14.5723 76.8919 15.5941 76.4523 17.7148C76.3632 18.1842 76.0186 18.6535 75.5434 18.6772L70.4701 18.1307C70.0424 18.0356 69.5671 17.6911 69.6859 17.0376C70.8503 10.8772 76.4166 9.01782 81.3949 9.01782C83.9434 9.01782 87.276 9.69505 89.284 11.6257C91.8325 14.0079 91.5889 17.1802 91.5889 20.6376V28.7941C91.5889 31.2475 92.6107 32.3228 93.5671 33.6475C93.8998 34.1228 93.977 34.6931 93.5493 35.0376C92.48 35.9346 90.579 37.5861 89.5335 38.5188L89.5216 38.5069V38.495ZM15.585 25.7287C15.585 27.7723 15.6325 29.4713 14.6048 31.2832C13.7731 32.7564 12.4483 33.6653 10.981 33.6653C8.97307 33.6653 7.79683 32.1327 7.79683 29.8693C7.79683 25.4079 11.8008 24.6 15.585 24.6V25.7346V25.7287ZM20.8661 38.495C20.5216 38.804 20.0166 38.8277 19.6305 38.6198C17.8899 37.1762 17.581 36.5049 16.6305 35.1327C13.7552 38.0614 11.7176 38.9406 7.99881 38.9406C3.59089 38.9406 0.157227 36.2198 0.157227 30.7782C0.157227 26.5247 2.46218 23.6376 5.74138 22.2178C8.58099 20.9703 12.5493 20.7445 15.5909 20.4059V19.7287C15.5909 18.4812 15.6859 17.0079 14.9552 15.9327C14.3196 14.9703 13.0958 14.5723 12.0147 14.5723C10.0186 14.5723 8.24237 15.5941 7.80277 17.7148C7.71366 18.1842 7.36911 18.6535 6.89386 18.6772L1.82059 18.1307C1.39287 18.0356 0.917622 17.6911 1.03643 17.0376C2.20079 10.8772 7.76119 9.01782 12.7453 9.01782C15.2939 9.01782 18.6265 9.69505 20.6345 11.6257C23.183 14.0079 22.9394 17.1802 22.9394 20.6376V28.7941C22.9394 31.2475 23.9612 32.3228 24.9176 33.6475C25.2503 34.1228 25.3275 34.6931 24.8998 35.0376C23.8305 35.9346 21.9295 37.5861 20.884 38.5188L20.8721 38.5069L20.8661 38.495ZM191.26 9.87327H193.351C193.797 9.87327 194.248 10.2594 194.248 10.6931V14.6792C195.71 11.5663 198.074 9.30891 201.71 9.30891C204.543 9.30891 206.67 10.3248 208.227 12.5228C209.878 14.8931 210.169 18.1723 210.169 21.1069V37.7287C210.169 38.1683 209.718 38.5544 209.272 38.5544H206.836C206.391 38.5544 205.939 38.1683 205.939 37.7287V21.1069C205.939 19.4673 205.838 17.3228 205.114 15.8554C204.413 14.3406 202.827 13.1465 201.324 13.1525C199.761 13.1525 197.735 14.299 196.482 16.0871C194.979 18.2317 194.587 20.602 194.587 23.3168V37.7584C194.587 38.1683 194.141 38.5604 193.69 38.5604H191.254C190.803 38.5604 190.351 38.1505 190.357 37.7346V10.699C190.357 10.2594 190.803 9.87327 191.254 9.87327H191.26ZM180.549 2.47723C180.549 1.11089 181.72 0 183.157 0C184.595 0 185.765 1.11089 185.765 2.47723C185.765 3.84356 184.595 4.95445 183.157 4.95445C181.72 4.95445 180.549 3.84356 180.549 2.47723ZM184.393 38.5604H181.928C181.482 38.5604 181.031 38.1683 181.031 37.7406L181.042 10.8238C181.042 10.3901 181.494 9.99802 181.933 9.99802H184.387C184.832 9.99802 185.284 10.3901 185.284 10.8238V37.7465C185.284 38.1802 184.838 38.5604 184.393 38.5663V38.5604Z" fill="#231F20"/>
</svg>
