<svg width="243" height="60" viewBox="0 0 243 60" fill="none" xmlns="http://www.w3.org/2000/svg">
<g clip-path="url(#clip0_1701_13570)">
<path fill-rule="evenodd" clip-rule="evenodd" d="M121.134 48.8852C111.302 56.1387 97.0505 60.0001 84.7772 60.0001C67.5732 60.0001 52.0861 53.6436 40.3653 43.0575C39.4445 42.2258 40.2643 41.0912 41.3752 41.7327C54.0228 49.0931 69.6643 53.5248 85.8168 53.5248C96.7119 53.5248 108.694 51.2614 119.714 46.5862C121.377 45.8793 122.767 47.6793 121.146 48.8852H121.134Z" fill="#6F6F6F"/>
<path fill-rule="evenodd" clip-rule="evenodd" d="M125.221 44.2157C123.961 42.6058 116.91 43.4494 113.738 43.8296C112.775 43.9425 112.627 43.1048 113.494 42.4989C119.12 38.5484 128.345 39.689 129.415 41.0078C130.496 42.3444 129.13 51.588 123.86 56.0019C123.046 56.6791 122.28 56.3167 122.637 55.4197C123.825 52.4553 126.48 45.8197 125.221 44.2098V44.2157Z" fill="#6F6F6F"/>
<path fill-rule="evenodd" clip-rule="evenodd" d="M113.963 14.5782V10.7346C113.963 10.1525 114.409 9.76039 114.937 9.76039H132.153C132.706 9.76039 133.145 10.1584 133.145 10.7287V14.0198C133.145 14.5723 132.676 15.2911 131.85 16.4376L122.933 29.1683C126.242 29.0911 129.747 29.5842 132.753 31.2772C133.43 31.6574 133.615 32.2218 133.668 32.7742V36.8733C133.668 37.4376 133.05 38.0911 132.403 37.7525C127.104 34.9782 120.07 34.6752 114.213 37.7881C113.613 38.1089 112.989 37.4614 112.989 36.897V33C112.989 32.3762 113.001 31.3129 113.63 30.3624L123.961 15.5406H114.967C114.415 15.5406 113.975 15.1485 113.975 14.5723L113.963 14.5782ZM51.1711 38.5663H45.9315C45.4325 38.5366 45.0345 38.1564 44.9929 37.6812V10.8C44.9929 10.2594 45.4503 9.83168 46.0087 9.83168H50.8859C51.3968 9.85544 51.8067 10.2416 51.8364 10.7346V14.2455H51.9374C53.2087 10.8535 55.6028 9.26733 58.8285 9.26733C62.0543 9.26733 64.1572 10.8535 65.6245 14.2455C66.8958 10.8535 69.777 9.26733 72.8602 9.26733C75.0582 9.26733 77.4582 10.1703 78.9196 12.2079C80.583 14.4713 80.2384 17.7505 80.2384 20.6376V37.598C80.2384 38.1327 79.781 38.5663 79.2226 38.5663H73.9889C73.4661 38.5307 73.0503 38.1148 73.0503 37.604V23.3525C73.0503 22.2238 73.1453 19.3901 72.9018 18.3208C72.5097 16.5089 71.3394 16.004 69.8246 16.004C68.5533 16.004 67.2345 16.8535 66.6939 18.2079C66.1533 19.5683 66.2067 21.8257 66.2067 23.3525V37.598C66.2067 38.1327 65.7552 38.5663 65.1968 38.5663H59.9632C59.4404 38.5307 59.0246 38.1148 59.0246 37.604V23.3525C59.0246 20.3525 59.5057 15.9445 55.7929 15.9445C52.08 15.9445 52.175 20.2455 52.175 23.3525V37.598C52.175 38.1327 51.7236 38.5663 51.1651 38.5663H51.1711ZM147.967 9.26733C155.737 9.26733 159.943 15.9446 159.943 24.4277C159.943 32.9109 155.298 39.1366 147.967 39.1366C140.636 39.1366 136.187 32.4594 136.187 24.1485C136.187 15.8376 140.393 9.27326 147.967 9.27326V9.26733ZM148.015 14.7564C144.153 14.7564 143.91 20.0139 143.91 23.299C143.91 26.5842 143.862 33.5941 147.967 33.5941C152.072 33.5941 152.221 27.9386 152.221 24.4871C152.221 22.2238 152.126 19.5089 151.436 17.3584C150.848 15.4931 149.678 14.7564 148.015 14.7564ZM170.025 38.5663H164.809C164.286 38.5307 163.87 38.1148 163.87 37.604V10.7109C163.906 10.2178 164.339 9.83168 164.868 9.83168H169.728C170.185 9.85544 170.559 10.1644 170.66 10.5861V14.697H170.761C172.229 11.0198 174.278 9.26733 177.896 9.26733C180.242 9.26733 182.541 10.1168 184.009 12.4337C185.375 14.5842 185.375 18.202 185.375 20.804V37.7168C185.316 38.1921 184.888 38.5663 184.371 38.5663H179.12C178.632 38.5366 178.246 38.1802 178.187 37.7168V23.1208C178.187 20.1802 178.531 15.8792 174.914 15.8792C173.642 15.8792 172.466 16.7287 171.884 18.0297C171.153 19.6693 171.052 21.3089 171.052 23.1208V37.5921C171.04 38.1267 170.589 38.5604 170.031 38.5604L170.025 38.5663ZM188.648 36.4337C188.648 35.0792 189.801 33.9861 191.227 33.9861C192.652 33.9861 193.805 35.0851 193.805 36.4337C193.805 37.7822 192.652 38.8812 191.227 38.8812C189.801 38.8812 188.648 37.7822 188.648 36.4337ZM100.24 25.7287C100.24 27.7723 100.288 29.4713 99.2602 31.2832C98.4285 32.7564 97.1038 33.6653 95.6364 33.6653C93.6285 33.6653 92.4523 32.1327 92.4523 29.8693C92.4523 25.4079 96.4562 24.6 100.24 24.6V25.7346V25.7287ZM105.522 38.495C105.177 38.804 104.678 38.8277 104.286 38.6198C102.545 37.1762 102.236 36.5049 101.286 35.1327C98.4107 38.0614 96.3731 38.9406 92.6483 38.9406C88.2404 38.9406 84.8067 36.2198 84.8067 30.7782C84.8067 26.5247 87.1117 23.6376 90.3909 22.2178C93.2305 20.9703 97.1988 20.7445 100.24 20.4059V19.7287C100.24 18.4812 100.341 17.0079 99.6048 15.9327C98.9691 14.9703 97.7453 14.5723 96.6642 14.5723C94.6681 14.5723 92.8919 15.5941 92.4523 17.7148C92.3632 18.1842 92.0186 18.6535 91.5434 18.6772L86.4701 18.1307C86.0424 18.0356 85.5671 17.6911 85.6859 17.0376C86.8503 10.8772 92.4166 9.01782 97.3949 9.01782C99.9434 9.01782 103.276 9.69505 105.284 11.6257C107.832 14.0079 107.589 17.1802 107.589 20.6376V28.7941C107.589 31.2475 108.611 32.3228 109.567 33.6475C109.9 34.1228 109.977 34.6931 109.549 35.0376C108.48 35.9346 106.579 37.5861 105.533 38.5188L105.522 38.5069V38.495ZM31.585 25.7287C31.585 27.7723 31.6325 29.4713 30.6048 31.2832C29.7731 32.7564 28.4483 33.6653 26.981 33.6653C24.9731 33.6653 23.7968 32.1327 23.7968 29.8693C23.7968 25.4079 27.8008 24.6 31.585 24.6V25.7346V25.7287ZM36.8661 38.495C36.5216 38.804 36.0166 38.8277 35.6305 38.6198C33.8899 37.1762 33.581 36.5049 32.6305 35.1327C29.7552 38.0614 27.7176 38.9406 23.9988 38.9406C19.5909 38.9406 16.1572 36.2198 16.1572 30.7782C16.1572 26.5247 18.4622 23.6376 21.7414 22.2178C24.581 20.9703 28.5493 20.7445 31.5909 20.4059V19.7287C31.5909 18.4812 31.6859 17.0079 30.9552 15.9327C30.3196 14.9703 29.0958 14.5723 28.0147 14.5723C26.0186 14.5723 24.2424 15.5941 23.8028 17.7148C23.7137 18.1842 23.3691 18.6535 22.8939 18.6772L17.8206 18.1307C17.3929 18.0356 16.9176 17.6911 17.0364 17.0376C18.2008 10.8772 23.7612 9.01782 28.7453 9.01782C31.2939 9.01782 34.6265 9.69505 36.6345 11.6257C39.183 14.0079 38.9394 17.1802 38.9394 20.6376V28.7941C38.9394 31.2475 39.9612 32.3228 40.9176 33.6475C41.2503 34.1228 41.3275 34.6931 40.8998 35.0376C39.8305 35.9346 37.9295 37.5861 36.884 38.5188L36.8721 38.5069L36.8661 38.495ZM207.26 9.87327H209.351C209.797 9.87327 210.248 10.2594 210.248 10.6931V14.6792C211.71 11.5663 214.074 9.30891 217.71 9.30891C220.543 9.30891 222.67 10.3248 224.227 12.5228C225.878 14.8931 226.169 18.1723 226.169 21.1069V37.7287C226.169 38.1683 225.718 38.5544 225.272 38.5544H222.836C222.391 38.5544 221.939 38.1683 221.939 37.7287V21.1069C221.939 19.4673 221.838 17.3228 221.114 15.8554C220.413 14.3406 218.827 13.1465 217.324 13.1525C215.761 13.1525 213.735 14.299 212.482 16.0871C210.979 18.2317 210.587 20.602 210.587 23.3168V37.7584C210.587 38.1683 210.141 38.5604 209.69 38.5604H207.254C206.803 38.5604 206.351 38.1505 206.357 37.7346V10.699C206.357 10.2594 206.803 9.87327 207.254 9.87327H207.26ZM196.549 2.47723C196.549 1.11089 197.72 0 199.157 0C200.595 0 201.765 1.11089 201.765 2.47723C201.765 3.84356 200.595 4.95445 199.157 4.95445C197.72 4.95445 196.549 3.84356 196.549 2.47723ZM200.393 38.5604H197.928C197.482 38.5604 197.031 38.1683 197.031 37.7406L197.042 10.8238C197.042 10.3901 197.494 9.99802 197.933 9.99802H200.387C200.832 9.99802 201.284 10.3901 201.284 10.8238V37.7465C201.284 38.1802 200.838 38.5604 200.393 38.5663V38.5604Z" fill="#6F6F6F"/>
</g>
<defs>
<clipPath id="clip0_1701_13570">
<rect width="242.326" height="60" fill="white"/>
</clipPath>
</defs>
</svg>
