<svg width="605" height="823" viewBox="0 0 605 823" fill="none" xmlns="http://www.w3.org/2000/svg">
<g opacity="0.5">
<path d="M166.719 116.344H100.938V72.2812C100.938 59.4688 100.208 51.5 98.75 48.375C97.3958 45.1458 94.3229 43.5312 89.5312 43.5312C84.1146 43.5312 80.6771 45.4583 79.2188 49.3125C77.7604 53.1667 77.0312 61.5 77.0312 74.3125V191.812C77.0312 204.104 77.7604 212.125 79.2188 215.875C80.6771 219.625 83.9583 221.5 89.0625 221.5C93.9583 221.5 97.1354 219.625 98.5938 215.875C100.156 212.125 100.938 203.323 100.938 189.469V157.75H166.719V167.594C166.719 193.74 164.844 212.281 161.094 223.219C157.448 234.156 149.271 243.74 136.562 251.969C123.958 260.198 108.385 264.312 89.8438 264.312C70.5729 264.312 54.6875 260.823 42.1875 253.844C29.6875 246.865 21.4062 237.229 17.3438 224.938C13.2812 212.542 11.25 193.948 11.25 169.156V95.25C11.25 77.0208 11.875 63.375 13.125 54.3125C14.375 45.1458 18.0729 36.3438 24.2188 27.9062C30.4688 19.4688 39.0625 12.8542 50 8.0625C61.0417 3.16667 73.6979 0.71875 87.9688 0.71875C107.344 0.71875 123.333 4.46875 135.938 11.9688C148.542 19.4688 156.823 28.8438 160.781 40.0938C164.74 51.2396 166.719 68.6354 166.719 92.2812V116.344ZM254.312 6.03125H300.875C331.917 6.03125 352.906 7.22917 363.844 9.625C374.885 12.0208 383.844 18.1667 390.719 28.0625C397.698 37.8542 401.188 53.5312 401.188 75.0938C401.188 94.7812 398.74 108.01 393.844 114.781C388.948 121.552 379.312 125.615 364.938 126.969C377.958 130.198 386.708 134.521 391.188 139.938C395.667 145.354 398.427 150.354 399.469 154.938C400.615 159.417 401.188 171.865 401.188 192.281V259H340.094V174.938C340.094 161.396 339 153.01 336.812 149.781C334.729 146.552 329.156 144.938 320.094 144.938V259H254.312V6.03125ZM320.094 49.3125V105.562C327.49 105.562 332.646 104.573 335.562 102.594C338.583 100.51 340.094 93.8958 340.094 82.75V68.8438C340.094 60.8229 338.635 55.5625 335.719 53.0625C332.906 50.5625 327.698 49.3125 320.094 49.3125ZM490.812 6.03125H600.5V56.6562H556.594V104.625H597.688V152.75H556.594V208.375H604.875V259H490.812V6.03125Z" fill="#ECB658" fill-opacity="0.3"/>
<path d="M126.719 288.031L164.375 541H97.0312L93.75 495.531H70.1562L66.25 541H-1.875L31.5625 288.031H126.719ZM91.875 450.688C88.5417 422.042 85.2083 386.677 81.875 344.594C75.2083 392.927 71.0417 428.292 69.375 450.688H91.875ZM354.312 288.031V338.656H315.25V541H249.469V338.656H210.562V288.031H354.312ZM499.094 288.031V541H433.312V288.031H499.094Z" fill="#E08E59" fill-opacity="0.3"/>
<path d="M169.375 570.031L135.938 823H36.0938L-1.875 570.031H67.5C75.5208 639.719 81.25 698.625 84.6875 746.75C88.125 698.104 91.7188 654.875 95.4688 617.062L100 570.031H169.375ZM244.625 570.031H354.312V620.656H310.406V668.625H351.5V716.75H310.406V772.375H358.688V823H244.625V570.031Z" fill="#F1CCBB" fill-opacity="0.3"/>
<path d="M166.719 116.344V117.344H167.719V116.344H166.719ZM100.938 116.344H99.9375V117.344H100.938V116.344ZM98.75 48.375L97.8278 48.7617L97.8355 48.78L97.8438 48.7979L98.75 48.375ZM79.2188 49.3125L78.2835 48.9586L79.2188 49.3125ZM79.2188 215.875L78.2867 216.237L79.2188 215.875ZM98.5938 215.875L97.6707 215.49L97.6661 215.501L97.6617 215.513L98.5938 215.875ZM100.938 157.75V156.75H99.9375V157.75H100.938ZM166.719 157.75H167.719V156.75H166.719V157.75ZM161.094 223.219L160.148 222.894L160.145 222.903L161.094 223.219ZM136.562 251.969L136.019 251.129L136.016 251.131L136.562 251.969ZM17.3438 224.938L16.3935 225.249L16.3943 225.251L17.3438 224.938ZM13.125 54.3125L14.1156 54.4491L14.1158 54.4476L13.125 54.3125ZM24.2188 27.9062L23.4152 27.311L23.4104 27.3175L24.2188 27.9062ZM50 8.0625L50.4013 8.97847L50.4053 8.97667L50 8.0625ZM160.781 40.0938L159.838 40.4257L159.839 40.4284L160.781 40.0938ZM166.719 115.344H100.938V117.344H166.719V115.344ZM101.938 116.344V72.2812H99.9375V116.344H101.938ZM101.938 72.2812C101.938 65.8603 101.755 60.6313 101.386 56.6042C101.022 52.6167 100.466 49.6872 99.6562 47.9521L97.8438 48.7979C98.4924 50.1878 99.0305 52.8052 99.3948 56.7864C99.7555 60.7281 99.9375 65.8897 99.9375 72.2812H101.938ZM99.6722 47.9883C98.9061 46.1615 97.6389 44.7733 95.8948 43.8569C94.1708 42.9511 92.0307 42.5312 89.5312 42.5312V44.5312C91.8235 44.5312 93.6156 44.9187 94.9646 45.6274C96.2934 46.3256 97.2397 47.3593 97.8278 48.7617L99.6722 47.9883ZM89.5312 42.5312C86.7129 42.5312 84.3153 43.0314 82.4016 44.1043C80.4678 45.1884 79.0917 46.8225 78.2835 48.9586L80.154 49.6664C80.8041 47.9483 81.8759 46.6918 83.3796 45.8488C84.9034 44.9946 86.933 44.5312 89.5312 44.5312V42.5312ZM78.2835 48.9586C77.5033 51.0204 76.9481 54.1816 76.5819 58.366C76.2139 62.5725 76.0312 67.8907 76.0312 74.3125H78.0312C78.0312 67.9218 78.2132 62.6671 78.5743 58.5403C78.9373 54.3913 79.4758 51.4588 80.154 49.6664L78.2835 48.9586ZM76.0312 74.3125V191.812H78.0312V74.3125H76.0312ZM76.0312 191.812C76.0312 197.975 76.2139 203.086 76.5822 207.137C76.9486 211.167 77.5045 214.226 78.2867 216.237L80.1508 215.513C79.4746 213.774 78.9368 210.947 78.574 206.956C78.2132 202.987 78.0312 197.942 78.0312 191.812H76.0312ZM78.2867 216.237C79.0932 218.311 80.4243 219.903 82.2773 220.962C84.1129 222.011 86.3951 222.5 89.0625 222.5V220.5C86.6258 220.5 84.7152 220.052 83.2696 219.226C81.8413 218.409 80.8027 217.189 80.1508 215.513L78.2867 216.237ZM89.0625 222.5C91.6325 222.5 93.8405 222.008 95.6254 220.955C97.425 219.893 98.7231 218.301 99.5258 216.237L97.6617 215.513C97.006 217.199 95.9864 218.42 94.6089 219.233C93.2168 220.054 91.3884 220.5 89.0625 220.5V222.5ZM99.5168 216.26C100.362 214.232 100.956 210.961 101.348 206.549C101.742 202.107 101.938 196.411 101.938 189.469H99.9375C99.9375 196.381 99.7425 202.012 99.3555 206.373C98.9658 210.762 98.3885 213.768 97.6707 215.49L99.5168 216.26ZM101.938 189.469V157.75H99.9375V189.469H101.938ZM100.938 158.75H166.719V156.75H100.938V158.75ZM165.719 157.75V167.594H167.719V157.75H165.719ZM165.719 167.594C165.719 193.733 163.839 212.128 160.148 222.894L162.04 223.543C165.848 212.435 167.719 193.746 167.719 167.594H165.719ZM160.145 222.903C156.591 233.565 148.597 242.985 136.019 251.129L137.106 252.808C149.945 244.494 158.305 234.747 162.042 223.535L160.145 222.903ZM136.016 251.131C123.608 259.232 108.236 263.312 89.8438 263.312V265.312C108.534 265.312 124.308 261.164 137.109 252.806L136.016 251.131ZM89.8438 263.312C70.6868 263.312 54.9832 259.843 42.675 252.971L41.7 254.717C54.3918 261.803 70.459 265.312 89.8438 265.312V263.312ZM42.675 252.971C30.3685 246.1 22.2686 236.652 18.2932 224.624L16.3943 225.251C20.5439 237.807 29.0065 247.63 41.7 254.717L42.675 252.971ZM18.294 224.626C14.2821 212.384 12.25 193.919 12.25 169.156H10.25C10.25 193.976 12.2804 212.699 16.3935 225.249L18.294 224.626ZM12.25 169.156V95.25H10.25V169.156H12.25ZM12.25 95.25C12.25 77.0311 12.8753 63.4412 14.1156 54.4491L12.1344 54.1759C10.8747 63.3088 10.25 77.0106 10.25 95.25H12.25ZM14.1158 54.4476C15.3407 45.465 18.966 36.8161 25.0271 28.495L23.4104 27.3175C17.1798 35.8714 13.4093 44.8266 12.1342 54.1774L14.1158 54.4476ZM25.0223 28.5015C31.1549 20.2225 39.6013 13.7099 50.4013 8.97846L49.5987 7.14654C38.5237 11.9984 29.7826 18.715 23.4152 27.311L25.0223 28.5015ZM50.4053 8.97667C61.2983 4.14676 73.8125 1.71875 87.9688 1.71875V-0.28125C73.5833 -0.28125 60.785 2.18658 49.5947 7.14833L50.4053 8.97667ZM87.9688 1.71875C107.22 1.71875 123.019 5.44518 135.426 12.8281L136.449 11.1094C123.648 3.49232 107.468 -0.28125 87.9688 -0.28125V1.71875ZM135.426 12.8281C147.877 20.2368 155.974 29.444 159.838 40.4257L161.725 39.7618C157.672 28.2435 149.206 18.7007 136.449 11.1094L135.426 12.8281ZM159.839 40.4284C163.737 51.4059 165.719 68.659 165.719 92.2812H167.719C167.719 68.6118 165.742 51.0733 161.724 39.7591L159.839 40.4284ZM165.719 92.2812V116.344H167.719V92.2812H165.719ZM254.312 6.03125V5.03125H253.312V6.03125H254.312ZM363.844 9.625L363.63 10.6018L363.632 10.6023L363.844 9.625ZM390.719 28.0625L389.897 28.6331L389.904 28.6429L390.719 28.0625ZM364.938 126.969L364.844 125.973L364.697 127.939L364.938 126.969ZM399.469 154.938L398.494 155.159L398.497 155.172L398.5 155.185L399.469 154.938ZM401.188 259V260H402.188V259H401.188ZM340.094 259H339.094V260H340.094V259ZM336.812 149.781L335.972 150.323L335.978 150.333L335.985 150.342L336.812 149.781ZM320.094 144.938V143.938H319.094V144.938H320.094ZM320.094 259V260H321.094V259H320.094ZM254.312 259H253.312V260H254.312V259ZM320.094 49.3125V48.3125H319.094V49.3125H320.094ZM320.094 105.562H319.094V106.562H320.094V105.562ZM335.562 102.594L336.124 103.421L336.13 103.417L335.562 102.594ZM335.719 53.0625L335.054 53.8099L335.061 53.8159L335.068 53.8218L335.719 53.0625ZM254.312 7.03125H300.875V5.03125H254.312V7.03125ZM300.875 7.03125C331.929 7.03125 352.813 8.23256 363.63 10.6018L364.058 8.64816C352.999 6.22578 331.905 5.03125 300.875 5.03125V7.03125ZM363.632 10.6023C374.409 12.9407 383.156 18.9298 389.897 28.6331L391.54 27.4919C384.531 17.4035 375.362 11.101 364.056 8.64774L363.632 10.6023ZM389.904 28.6429C396.7 38.1766 400.188 53.5947 400.188 75.0938H402.188C402.188 53.4678 398.696 37.5317 391.533 27.4821L389.904 28.6429ZM400.188 75.0938C400.188 84.9017 399.577 93.0653 398.368 99.5993C397.157 106.147 395.357 110.981 393.033 114.195L394.654 115.367C397.226 111.81 399.099 106.645 400.335 99.9632C401.574 93.268 402.188 84.9733 402.188 75.0938H400.188ZM393.033 114.195C388.396 120.609 379.13 124.627 364.844 125.973L365.031 127.964C379.495 126.602 389.5 122.495 394.654 115.367L393.033 114.195ZM364.697 127.939C377.671 131.157 386.151 135.417 390.417 140.575L391.958 139.3C387.265 133.625 378.246 129.239 365.178 125.998L364.697 127.939ZM390.417 140.575C394.842 145.926 397.5 150.785 398.494 155.159L400.444 154.716C399.355 149.923 396.492 144.783 391.958 139.3L390.417 140.575ZM398.5 155.185C399.044 157.312 399.472 161.446 399.759 167.679C400.044 173.881 400.188 182.08 400.188 192.281H402.188C402.188 182.066 402.044 173.833 401.757 167.587C401.471 161.372 401.039 157.042 400.438 154.69L398.5 155.185ZM400.188 192.281V259H402.188V192.281H400.188ZM401.188 258H340.094V260H401.188V258ZM341.094 259V174.938H339.094V259H341.094ZM341.094 174.938C341.094 168.146 340.82 162.616 340.265 158.363C339.716 154.156 338.876 151.045 337.64 149.22L335.985 150.342C336.936 151.747 337.737 154.443 338.282 158.622C338.821 162.754 339.094 168.188 339.094 174.938H341.094ZM337.653 149.239C336.428 147.34 334.253 146.029 331.349 145.188C328.436 144.344 324.673 143.938 320.094 143.938V145.938C324.577 145.938 328.132 146.338 330.792 147.109C333.461 147.882 335.114 148.993 335.972 150.323L337.653 149.239ZM319.094 144.938V259H321.094V144.938H319.094ZM320.094 258H254.312V260H320.094V258ZM255.312 259V6.03125H253.312V259H255.312ZM319.094 49.3125V105.562H321.094V49.3125H319.094ZM320.094 106.562C327.512 106.562 332.939 105.583 336.124 103.421L335.001 101.766C332.353 103.563 327.467 104.562 320.094 104.562V106.562ZM336.13 103.417C337.962 102.153 339.167 99.6597 339.936 96.2929C340.715 92.8811 341.094 88.3566 341.094 82.75H339.094C339.094 88.2892 338.717 92.6449 337.986 95.8477C337.244 99.0955 336.183 100.951 334.995 101.771L336.13 103.417ZM341.094 82.75V68.8438H339.094V82.75H341.094ZM341.094 68.8438C341.094 64.7811 340.725 61.3632 339.964 58.6157C339.203 55.8713 338.03 53.7264 336.37 52.3032L335.068 53.8218C336.324 54.8986 337.339 56.6339 338.036 59.15C338.733 61.6628 339.094 64.8855 339.094 68.8438H341.094ZM336.383 52.3151C333.275 49.5519 327.73 48.3125 320.094 48.3125V50.3125C327.665 50.3125 332.538 51.5731 335.054 53.8099L336.383 52.3151ZM490.812 6.03125V5.03125H489.812V6.03125H490.812ZM600.5 6.03125H601.5V5.03125H600.5V6.03125ZM600.5 56.6562V57.6562H601.5V56.6562H600.5ZM556.594 56.6562V55.6562H555.594V56.6562H556.594ZM556.594 104.625H555.594V105.625H556.594V104.625ZM597.688 104.625H598.688V103.625H597.688V104.625ZM597.688 152.75V153.75H598.688V152.75H597.688ZM556.594 152.75V151.75H555.594V152.75H556.594ZM556.594 208.375H555.594V209.375H556.594V208.375ZM604.875 208.375H605.875V207.375H604.875V208.375ZM604.875 259V260H605.875V259H604.875ZM490.812 259H489.812V260H490.812V259ZM490.812 7.03125H600.5V5.03125H490.812V7.03125ZM599.5 6.03125V56.6562H601.5V6.03125H599.5ZM600.5 55.6562H556.594V57.6562H600.5V55.6562ZM555.594 56.6562V104.625H557.594V56.6562H555.594ZM556.594 105.625H597.688V103.625H556.594V105.625ZM596.688 104.625V152.75H598.688V104.625H596.688ZM597.688 151.75H556.594V153.75H597.688V151.75ZM555.594 152.75V208.375H557.594V152.75H555.594ZM556.594 209.375H604.875V207.375H556.594V209.375ZM603.875 208.375V259H605.875V208.375H603.875ZM604.875 258H490.812V260H604.875V258ZM491.812 259V6.03125H489.812V259H491.812ZM126.719 288.031L127.708 287.884L127.581 287.031H126.719V288.031ZM164.375 541V542H165.535L165.364 540.853L164.375 541ZM97.0312 541L96.0338 541.072L96.1008 542H97.0312V541ZM93.75 495.531L94.7474 495.459L94.6804 494.531H93.75V495.531ZM70.1562 495.531V494.531H69.2385L69.1599 495.446L70.1562 495.531ZM66.25 541V542H67.1678L67.2463 541.086L66.25 541ZM-1.875 541L-2.86638 540.869L-3.01588 542H-1.875V541ZM31.5625 288.031V287.031H30.686L30.5711 287.9L31.5625 288.031ZM91.875 450.688V451.688H92.9981L92.8683 450.572L91.875 450.688ZM81.875 344.594L82.8719 344.515L80.8844 344.457L81.875 344.594ZM69.375 450.688L68.3778 450.613L68.2978 451.688H69.375V450.688ZM125.73 288.178L163.386 541.147L165.364 540.853L127.708 287.884L125.73 288.178ZM164.375 540H97.0312V542H164.375V540ZM98.0287 540.928L94.7474 495.459L92.7526 495.603L96.0338 541.072L98.0287 540.928ZM93.75 494.531H70.1562V496.531H93.75V494.531ZM69.1599 495.446L65.2537 540.914L67.2463 541.086L71.1526 495.617L69.1599 495.446ZM66.25 540H-1.875V542H66.25V540ZM-0.883623 541.131L32.5539 288.162L30.5711 287.9L-2.86638 540.869L-0.883623 541.131ZM31.5625 289.031H126.719V287.031H31.5625V289.031ZM92.8683 450.572C89.5369 421.942 86.2046 386.591 82.8719 344.515L80.8781 344.673C84.212 386.763 87.5465 422.141 90.8817 450.803L92.8683 450.572ZM80.8844 344.457C74.2174 392.793 70.0469 428.184 68.3778 450.613L70.3722 450.762C72.0364 428.399 76.1993 393.061 82.8656 344.73L80.8844 344.457ZM69.375 451.688H91.875V449.688H69.375V451.688ZM354.312 288.031H355.312V287.031H354.312V288.031ZM354.312 338.656V339.656H355.312V338.656H354.312ZM315.25 338.656V337.656H314.25V338.656H315.25ZM315.25 541V542H316.25V541H315.25ZM249.469 541H248.469V542H249.469V541ZM249.469 338.656H250.469V337.656H249.469V338.656ZM210.562 338.656H209.562V339.656H210.562V338.656ZM210.562 288.031V287.031H209.562V288.031H210.562ZM353.312 288.031V338.656H355.312V288.031H353.312ZM354.312 337.656H315.25V339.656H354.312V337.656ZM314.25 338.656V541H316.25V338.656H314.25ZM315.25 540H249.469V542H315.25V540ZM250.469 541V338.656H248.469V541H250.469ZM249.469 337.656H210.562V339.656H249.469V337.656ZM211.562 338.656V288.031H209.562V338.656H211.562ZM210.562 289.031H354.312V287.031H210.562V289.031ZM499.094 288.031H500.094V287.031H499.094V288.031ZM499.094 541V542H500.094V541H499.094ZM433.312 541H432.312V542H433.312V541ZM433.312 288.031V287.031H432.312V288.031H433.312ZM498.094 288.031V541H500.094V288.031H498.094ZM499.094 540H433.312V542H499.094V540ZM434.312 541V288.031H432.312V541H434.312ZM433.312 289.031H499.094V287.031H433.312V289.031ZM169.375 570.031L170.366 570.162L170.516 569.031H169.375V570.031ZM135.938 823V824H136.814L136.929 823.131L135.938 823ZM36.0938 823L35.1048 823.148L35.2326 824H36.0938V823ZM-1.875 570.031V569.031H-3.03629L-2.86392 570.18L-1.875 570.031ZM67.5 570.031L68.4934 569.917L68.3915 569.031H67.5V570.031ZM84.6875 746.75L83.69 746.821L85.685 746.82L84.6875 746.75ZM95.4688 617.062L96.4639 617.161L96.4641 617.158L95.4688 617.062ZM100 570.031V569.031H99.0917L99.0046 569.935L100 570.031ZM168.384 569.9L134.946 822.869L136.929 823.131L170.366 570.162L168.384 569.9ZM135.938 822H36.0938V824H135.938V822ZM37.0827 822.852L-0.886077 569.883L-2.86392 570.18L35.1048 823.148L37.0827 822.852ZM-1.875 571.031H67.5V569.031H-1.875V571.031ZM66.5066 570.146C74.5264 639.825 80.2539 698.715 83.69 746.821L85.685 746.679C82.2461 698.535 76.5153 639.613 68.4934 569.917L66.5066 570.146ZM85.685 746.82C89.122 698.182 92.715 654.962 96.4639 617.161L94.4736 616.964C90.7225 654.788 87.128 698.027 83.69 746.68L85.685 746.82ZM96.4641 617.158L100.995 570.127L99.0046 569.935L94.4734 616.967L96.4641 617.158ZM100 571.031H169.375V569.031H100V571.031ZM244.625 570.031V569.031H243.625V570.031H244.625ZM354.312 570.031H355.312V569.031H354.312V570.031ZM354.312 620.656V621.656H355.312V620.656H354.312ZM310.406 620.656V619.656H309.406V620.656H310.406ZM310.406 668.625H309.406V669.625H310.406V668.625ZM351.5 668.625H352.5V667.625H351.5V668.625ZM351.5 716.75V717.75H352.5V716.75H351.5ZM310.406 716.75V715.75H309.406V716.75H310.406ZM310.406 772.375H309.406V773.375H310.406V772.375ZM358.688 772.375H359.688V771.375H358.688V772.375ZM358.688 823V824H359.688V823H358.688ZM244.625 823H243.625V824H244.625V823ZM244.625 571.031H354.312V569.031H244.625V571.031ZM353.312 570.031V620.656H355.312V570.031H353.312ZM354.312 619.656H310.406V621.656H354.312V619.656ZM309.406 620.656V668.625H311.406V620.656H309.406ZM310.406 669.625H351.5V667.625H310.406V669.625ZM350.5 668.625V716.75H352.5V668.625H350.5ZM351.5 715.75H310.406V717.75H351.5V715.75ZM309.406 716.75V772.375H311.406V716.75H309.406ZM310.406 773.375H358.688V771.375H310.406V773.375ZM357.688 772.375V823H359.688V772.375H357.688ZM358.688 822H244.625V824H358.688V822ZM245.625 823V570.031H243.625V823H245.625Z" fill="#7E7E7E" fill-opacity="0.35"/>
</g>
</svg>
