<svg width="308" height="60" viewBox="0 0 308 60" fill="none" xmlns="http://www.w3.org/2000/svg">
<path d="M19.5118 58.9474H7.90605V29.9554H0V20.5162H7.90574V13.7996C7.90574 5.84029 11.4025 0.131958 22.9768 0.131958C25.4248 0.131958 29.268 0.626402 29.268 0.626402V9.39122H25.2314C21.1183 9.39122 19.5124 10.6449 19.5124 14.111V20.5162H29.114L28.259 29.9554H19.5121L19.5118 58.9474ZM46.1415 19.7619C45.9724 19.7619 45.7984 19.7681 45.6262 19.7724C34.8647 19.7724 29.941 27.8841 29.941 39.3989C29.941 53.9045 36.3277 59.71 45.7103 59.71C51.0784 59.71 54.6053 57.4458 56.749 53.2205V58.9514H67.7877V20.5202H56.749V26.4304C54.9986 22.6279 51.3732 19.807 46.1415 19.7619ZM48.9483 28.8431C53.4682 28.8431 56.181 32.0023 56.181 37.3761L56.1915 42.8647C56.1915 46.4866 53.9508 50.7239 48.9483 50.7239C41.2575 50.7239 41.463 42.4023 41.463 39.6307C41.463 30.3076 45.5606 28.8431 48.9483 28.8431ZM72.2457 39.7378C72.2457 35.0678 72.0227 19.7869 91.8899 19.7869C99.865 19.7869 103.195 22.3279 103.195 22.3279L100.519 30.6468C100.519 30.6468 97.1928 28.8116 92.8592 28.8116C87.3088 28.8116 83.7671 32.036 83.7671 37.7091L83.7732 41.777C83.7732 47.2283 87.1905 50.8671 92.8706 50.8671C96.8186 50.8671 100.457 49.0147 100.457 49.0147L103.127 57.1597C103.127 57.1597 100.082 59.7168 91.9457 59.7168C73.029 59.7168 72.246 46.007 72.246 39.7378H72.2457ZM167.919 19.7724C178.681 19.7724 183.682 27.8841 183.682 39.3989C183.682 53.9045 177.295 59.71 167.913 59.71C162.545 59.71 158.576 57.4462 156.433 53.2205V58.9514L145.533 58.9471V1.30048L157.106 0.289057V25.9097C158.776 21.4273 164.265 19.7724 167.919 19.7724H167.919ZM164.675 28.8431C160.155 28.8431 157.106 32.0023 157.106 37.3761L157.095 42.8647C157.088 46.4866 159.206 50.7239 164.675 50.7239C172.365 50.7239 172.16 42.4023 172.16 39.6307C172.16 30.3076 168.063 28.8431 164.675 28.8431ZM123.275 19.8042C111.069 19.8042 104.625 26.473 104.625 38.3242V40.5261C104.625 55.9079 113.674 59.8681 124.463 59.8681C134.949 59.8681 139.696 56.9289 139.696 56.9289L137.53 49.1017C137.53 49.1017 131.947 51.4823 125.85 51.4823C119.53 51.4823 116.812 49.8681 116.115 43.7817H140.621V37.5023C140.621 24.6468 133.389 19.8039 123.275 19.8039L123.275 19.8042ZM123.569 27.6418C127.794 27.6418 130.532 30.2381 130.382 36.2594H116.137C116.384 29.9221 119.336 27.6421 123.569 27.6421V27.6418ZM206.758 19.7514C194.223 19.7514 187.624 26.8298 187.624 39.5147C187.624 56.919 198.999 59.7205 206.779 59.7205C218.167 59.7205 225.744 53.5764 225.744 39.6727C225.744 25.2014 217.225 19.7514 206.758 19.7514ZM206.6 28.8745C212.112 28.8745 214.296 33.0082 214.296 37.7134V41.7588C214.296 47.4588 211.24 50.7557 206.579 50.7557C202.22 50.7557 199.157 47.6718 199.157 41.7588V37.7134C199.157 31.4073 202.802 28.8745 206.6 28.8745ZM248.799 19.7514C236.265 19.7514 229.666 26.8298 229.666 39.5147C229.666 56.919 241.041 59.7205 248.82 59.7205C260.209 59.7205 267.786 53.5764 267.786 39.6727C267.786 25.2014 259.266 19.7514 248.799 19.7514ZM248.642 28.8745C254.153 28.8745 256.337 33.0082 256.337 37.7134V41.7588C256.337 47.4588 253.281 50.7557 248.621 50.7557C244.262 50.7557 241.199 47.6718 241.199 41.7588V37.7134C241.199 31.4073 244.844 28.8745 248.642 28.8745ZM272.159 58.9474V1.30048L283.765 0.289057V38.9276L295.28 20.5162H307.537L295.525 39.585L308 58.9474H295.708L283.765 40.1468V58.9474H272.159Z" fill="#6F6F6F"/>
</svg>
