<svg width="647" height="908" viewBox="0 0 647 908" fill="none" xmlns="http://www.w3.org/2000/svg">
<g clip-path="url(#clip0_1816_14000)">
<path d="M388.14 518.653L388.14 389.289L258.976 389.289L258.976 518.653L388.14 518.653Z" fill="#ECB658"/>
<path d="M388.14 518.653L388.14 389.289L258.976 389.289L258.976 518.653L388.14 518.653Z" fill="#ECB658"/>
<path d="M646.691 518.653L646.691 389.289L517.527 389.289L517.527 518.653L646.691 518.653Z" fill="#F1CCBB"/>
<path d="M614.663 486.595L614.663 421.357L549.536 421.357L549.536 486.595L614.663 486.595Z" fill="white"/>
<path d="M646.691 389.463L646.691 260.099L517.527 260.099L517.527 389.463L646.691 389.463Z" fill="#4E6A74"/>
<path d="M614.403 306.83L614.403 292.438L600.033 292.438L600.033 306.83L614.403 306.83Z" fill="#F1CCBB"/>
<path d="M614.403 331.982L614.403 317.59L600.033 317.59L600.033 331.982L614.403 331.982Z" fill="#F1CCBB"/>
<path d="M614.403 357.144L614.403 342.752L600.033 342.752L600.033 357.144L614.403 357.144Z" fill="#F1CCBB"/>
<path d="M589.289 306.83L589.289 292.438L574.919 292.438L574.919 306.83L589.289 306.83Z" fill="#F1CCBB"/>
<path d="M589.289 331.982L589.289 317.59L574.919 317.59L574.919 331.982L589.289 331.982Z" fill="#F1CCBB"/>
<path d="M589.289 357.144L589.289 342.752L574.919 342.752L574.919 357.144L589.289 357.144Z" fill="#F1CCBB"/>
<path d="M564.176 306.83L564.176 292.438L549.806 292.438L549.806 306.83L564.176 306.83Z" fill="#F1CCBB"/>
<path d="M564.176 331.982L564.176 317.59L549.806 317.59L549.806 331.982L564.176 331.982Z" fill="#F1CCBB"/>
<path d="M564.176 357.144L564.176 342.752L549.806 342.752L549.806 357.144L564.176 357.144Z" fill="#F1CCBB"/>
<path d="M386.848 777.989L386.848 648.625L257.683 648.625L257.683 777.989L386.848 777.989Z" fill="white"/>
<path d="M516.842 518.653L516.842 389.289L387.677 389.289L387.677 518.653L516.842 518.653Z" fill="white"/>
<path d="M129.811 648.268L129.811 518.904L0.646179 518.904L0.646174 648.268L129.811 648.268Z" fill="white"/>
<path d="M65.2238 518.894C52.4439 518.894 39.951 522.69 29.325 529.801C18.6989 536.912 10.4169 547.019 5.5263 558.844C0.635656 570.67 -0.643957 583.682 1.84927 596.236C4.34249 608.789 10.4965 620.32 19.5333 629.371C28.57 638.422 40.0835 644.585 52.6178 647.082C65.1521 649.579 78.1442 648.298 89.9512 643.4C101.758 638.501 111.85 630.207 118.95 619.564C126.05 608.922 129.84 596.41 129.84 583.61C129.84 566.446 123.032 549.986 110.914 537.849C98.7964 525.713 82.361 518.894 65.2238 518.894Z" fill="#ECB658"/>
<path d="M65.2238 551.243C58.834 551.225 52.5828 553.107 47.2615 556.65C41.9402 560.193 37.7882 565.238 35.331 571.145C32.8738 577.053 32.222 583.558 33.4581 589.837C34.6941 596.115 37.7625 601.886 42.2746 606.417C46.7868 610.948 52.54 614.037 58.8058 615.292C65.0715 616.547 71.5681 615.911 77.4732 613.466C83.3782 611.021 88.4262 606.876 91.978 601.556C95.5298 596.237 97.4257 589.981 97.4257 583.581C97.4333 579.34 96.6062 575.138 94.9917 571.217C93.3771 567.295 91.0068 563.731 88.0162 560.728C85.0256 557.725 81.4734 555.341 77.5625 553.714C73.6516 552.086 69.4588 551.246 65.2238 551.243V551.243Z" fill="white"/>
<path d="M646.691 908L646.691 778.636L517.527 778.636L517.527 908L646.691 908Z" fill="white"/>
<path d="M582.095 778.636C569.315 778.636 556.822 782.432 546.196 789.543C535.57 796.654 527.288 806.761 522.397 818.586C517.506 830.412 516.227 843.424 518.72 855.977C521.213 868.531 527.367 880.062 536.404 889.113C545.441 898.164 556.954 904.327 569.489 906.824C582.023 909.321 595.015 908.04 606.822 903.141C618.629 898.243 628.721 889.948 635.821 879.306C642.921 868.664 646.711 856.151 646.711 843.352C646.711 826.188 639.903 809.728 627.785 797.591C615.667 785.454 599.232 778.636 582.095 778.636V778.636Z" fill="#E08E59"/>
<path d="M582.095 794.458C572.438 794.433 562.991 797.279 554.95 802.635C546.909 807.991 540.636 815.616 536.926 824.545C533.215 833.474 532.233 843.305 534.104 852.793C535.976 862.281 540.616 871 547.439 877.845C554.261 884.69 562.958 889.353 572.428 891.245C581.898 893.136 591.716 892.17 600.638 888.469C609.56 884.769 617.184 878.499 622.547 870.456C627.909 862.412 630.767 852.956 630.759 843.284C630.765 836.878 629.512 830.533 627.069 824.612C624.627 818.691 621.044 813.309 616.525 808.775C612.006 804.241 606.639 800.643 600.732 798.186C594.824 795.73 588.491 794.463 582.095 794.458V794.458Z" fill="white"/>
<path d="M582.095 809.323C575.375 809.306 568.802 811.286 563.207 815.013C557.612 818.741 553.247 824.047 550.666 830.26C548.084 836.474 547.402 843.315 548.705 849.917C550.008 856.519 553.238 862.585 557.986 867.347C562.734 872.109 568.787 875.353 575.377 876.668C581.967 877.982 588.798 877.309 595.006 874.732C601.213 872.155 606.517 867.791 610.247 862.193C613.976 856.595 615.963 850.014 615.955 843.284C615.959 838.827 615.086 834.413 613.386 830.295C611.687 826.176 609.194 822.432 606.049 819.279C602.905 816.125 599.171 813.622 595.061 811.914C590.95 810.206 586.545 809.326 582.095 809.323V809.323Z" fill="#ECB658"/>
<path d="M258.976 518.653L258.976 389.289L129.811 389.289L129.811 518.653L258.976 518.653Z" fill="white"/>
<path d="M194.388 421.628C187.999 421.61 181.747 423.492 176.426 427.035C171.105 430.578 166.953 435.623 164.496 441.53C162.038 447.438 161.387 453.943 162.623 460.222C163.859 466.5 166.927 472.271 171.439 476.802C175.951 481.333 181.705 484.422 187.97 485.677C194.236 486.932 200.733 486.296 206.638 483.851C212.543 481.406 217.591 477.261 221.143 471.942C224.694 466.622 226.59 460.366 226.59 453.966C226.598 449.725 225.771 445.523 224.156 441.602C222.542 437.681 220.171 434.116 217.181 431.113C214.19 428.11 210.638 425.726 206.727 424.099C202.816 422.471 198.623 421.631 194.388 421.628V421.628Z" fill="#4E6A74"/>
<path d="M484.553 421.628L516.842 453.966L484.553 486.324L516.842 518.653L484.553 518.653L452.255 486.324L484.553 453.966L452.255 421.628L484.553 389.289L516.842 389.289L484.553 421.628Z" fill="#4E6A74"/>
<path d="M452.255 453.966L419.956 486.324L452.255 518.653L419.956 518.653L387.668 486.324L419.956 453.966L387.668 421.628L419.956 389.289L452.255 389.289L419.956 421.628L452.255 453.966Z" fill="#4E6A74"/>
<path d="M388.14 648.268L388.14 518.904L258.976 518.904L258.976 648.268L388.14 648.268Z" fill="white"/>
<path d="M388.14 648.268L388.14 518.904L258.976 518.904L258.976 648.268L388.14 648.268Z" fill="white"/>
<path d="M388.182 632.08L372.036 615.903L355.885 632.074L372.031 648.25L388.182 632.08Z" fill="#4E6A74"/>
<path d="M371.986 583.591L388.14 599.75L371.986 615.92L355.842 599.75L371.986 583.591Z" fill="#4E6A74"/>
<path d="M371.986 551.243L388.14 567.412L371.986 583.591L355.842 567.412L371.986 551.243Z" fill="#4E6A74"/>
<path d="M371.986 518.904L388.14 535.083L371.986 551.243L355.842 535.083L371.986 518.904Z" fill="#4E6A74"/>
<path d="M355.787 632.115L339.646 615.948L323.504 632.115L339.645 648.281L355.787 632.115Z" fill="#4E6A74"/>
<path d="M355.842 599.75L339.697 615.92L323.563 599.75L339.697 583.591L355.842 599.75Z" fill="#4E6A74"/>
<path d="M339.697 583.591L323.563 567.412L339.697 551.243L355.842 567.412L339.697 583.591Z" fill="#4E6A74"/>
<path d="M355.842 535.083L339.697 551.243L323.563 535.083L339.697 518.904L355.842 535.083Z" fill="#4E6A74"/>
<path d="M323.504 632.118L307.356 615.945L291.207 632.119L307.356 648.292L323.504 632.118Z" fill="#4E6A74"/>
<path d="M307.409 615.92L291.255 599.75L307.409 583.591L323.563 599.75L307.409 615.92Z" fill="#4E6A74"/>
<path d="M291.255 567.412L307.409 551.243L323.563 567.412L307.409 583.591L291.255 567.412Z" fill="#4E6A74"/>
<path d="M291.255 535.083L307.409 518.904L323.563 535.083L307.409 551.243L291.255 535.083Z" fill="#4E6A74"/>
<path d="M291.321 632.081L275.179 615.914L259.037 632.081L275.179 648.247L291.321 632.081Z" fill="#4E6A74"/>
<path d="M275.12 615.92L258.976 599.75L275.12 583.591L291.255 599.75L275.12 615.92Z" fill="#4E6A74"/>
<path d="M275.12 583.591L258.976 567.412L275.12 551.243L291.255 567.412L275.12 583.591Z" fill="#4E6A74"/>
<path d="M258.976 535.083L275.12 518.904L291.255 535.083L275.12 551.243L258.976 535.083Z" fill="#4E6A74"/>
<path d="M516.842 908L516.842 778.636L387.677 778.636L387.677 908L516.842 908Z" fill="#4E6A74"/>
<path d="M516.842 908L516.842 778.636L387.677 778.636L387.677 908L516.842 908Z" fill="#4E6A74"/>
<path d="M387.668 843.284C404.805 843.284 421.24 836.466 433.358 824.329C445.476 812.193 452.284 795.732 452.284 778.569L516.9 778.569C516.909 795.568 513.572 812.403 507.081 828.11C500.589 843.818 491.07 858.09 479.068 870.11C467.066 882.131 452.816 891.664 437.133 898.166C421.45 904.667 404.641 908.009 387.668 908L387.668 843.284Z" fill="#F1CCBB"/>
<path d="M517.459 129.866L517.459 0.502258L388.295 0.502253L388.295 129.866L517.459 129.866Z" fill="white"/>
<path d="M400.205 0.502258L388.295 12.4505L388.295 0.502258L400.205 0.502258Z" fill="#ECB658"/>
<path d="M388.295 64.706L388.295 38.5783L426.312 0.502257L452.409 0.502258L388.295 64.706Z" fill="#ECB658"/>
<path d="M388.295 117L388.295 90.8531L478.506 0.502257L504.604 0.502258L388.295 117Z" fill="#ECB658"/>
<path d="M505.529 129.866L517.459 117.927L517.459 129.866L505.529 129.866Z" fill="#ECB658"/>
<path d="M427.614 129.866L401.536 129.866L517.459 13.7545L517.459 39.8919L427.614 129.866Z" fill="#ECB658"/>
<path d="M479.558 129.866L453.47 129.866L517.459 65.7879L517.459 91.9253L479.558 129.866Z" fill="#ECB658"/>
<path d="M129.811 908L129.811 778.636L0.646118 778.636L0.646113 908L129.811 908Z" fill="white"/>
<path d="M129.811 908C95.5533 908 62.6988 894.371 38.4742 870.111C14.2496 845.851 0.63909 812.946 0.636534 778.636L129.811 778.636L129.811 908Z" fill="#F1CCBB"/>
<path d="M516.842 777.989L516.842 648.625L387.677 648.625L387.677 777.989L516.842 777.989Z" fill="#E08E59"/>
<path d="M516.842 777.989L516.842 648.625L387.677 648.625L387.677 777.989L516.842 777.989Z" fill="#E08E59"/>
<path d="M504.034 762.235C504.031 763.363 503.693 764.465 503.064 765.401C502.436 766.337 501.544 767.066 500.503 767.495C499.461 767.924 498.315 768.035 497.211 767.812C496.107 767.59 495.093 767.045 494.298 766.246C493.502 765.446 492.962 764.429 492.743 763.322C492.525 762.216 492.639 761.069 493.071 760.027C493.503 758.985 494.233 758.094 495.17 757.468C496.107 756.842 497.208 756.507 498.335 756.507C499.084 756.509 499.827 756.658 500.519 756.946C501.211 757.235 501.84 757.657 502.369 758.189C502.898 758.721 503.318 759.352 503.604 760.046C503.889 760.74 504.036 761.484 504.034 762.235V762.235Z" fill="white"/>
<path d="M504.034 739.15C504.033 740.278 503.697 741.381 503.069 742.319C502.442 743.256 501.551 743.986 500.509 744.417C499.468 744.848 498.322 744.959 497.217 744.738C496.112 744.517 495.097 743.972 494.301 743.173C493.505 742.375 492.963 741.357 492.744 740.25C492.525 739.143 492.638 737.996 493.07 736.953C493.501 735.911 494.232 735.02 495.169 734.393C496.106 733.766 497.208 733.432 498.335 733.432C499.847 733.434 501.297 734.038 502.366 735.11C503.434 736.182 504.034 737.635 504.034 739.15V739.15Z" fill="white"/>
<path d="M504.034 716.065C504.033 717.193 503.697 718.296 503.069 719.234C502.442 720.171 501.551 720.901 500.509 721.332C499.468 721.762 498.322 721.874 497.217 721.653C496.112 721.431 495.097 720.887 494.301 720.088C493.505 719.289 492.963 718.272 492.744 717.165C492.525 716.058 492.638 714.911 493.07 713.868C493.501 712.826 494.232 711.935 495.169 711.308C496.106 710.681 497.208 710.347 498.335 710.347C499.847 710.349 501.297 710.953 502.366 712.025C503.434 713.097 504.034 714.55 504.034 716.065V716.065Z" fill="white"/>
<path d="M504.035 692.98C504.033 694.108 503.697 695.211 503.069 696.148C502.442 697.086 501.551 697.816 500.509 698.247C499.468 698.677 498.322 698.789 497.217 698.568C496.112 698.346 495.097 697.802 494.301 697.003C493.505 696.204 492.963 695.187 492.744 694.08C492.525 692.973 492.638 691.826 493.07 690.783C493.502 689.741 494.232 688.85 495.169 688.223C496.106 687.596 497.208 687.261 498.335 687.261C499.084 687.26 499.827 687.407 500.52 687.694C501.212 687.981 501.842 688.403 502.371 688.934C502.901 689.465 503.321 690.096 503.606 690.791C503.891 691.485 504.037 692.229 504.035 692.98V692.98Z" fill="white"/>
<path d="M492.645 669.894C492.648 668.766 492.986 667.664 493.615 666.727C494.244 665.791 495.136 665.062 496.179 664.633C497.221 664.205 498.367 664.095 499.472 664.318C500.576 664.541 501.59 665.088 502.385 665.888C503.18 666.688 503.72 667.706 503.937 668.813C504.154 669.921 504.039 671.068 503.606 672.109C503.172 673.151 502.44 674.041 501.502 674.666C500.564 675.291 499.462 675.624 498.335 675.622C496.822 675.617 495.373 675.011 494.307 673.937C493.24 672.863 492.642 671.409 492.645 669.894V669.894Z" fill="white"/>
<path d="M481.043 762.235C481.039 763.364 480.701 764.466 480.072 765.402C479.443 766.339 478.551 767.067 477.509 767.496C476.466 767.925 475.32 768.035 474.216 767.812C473.111 767.588 472.097 767.042 471.302 766.242C470.508 765.442 469.968 764.424 469.75 763.316C469.533 762.209 469.648 761.062 470.082 760.02C470.515 758.978 471.247 758.089 472.185 757.463C473.124 756.838 474.226 756.505 475.353 756.507C476.102 756.509 476.844 756.658 477.535 756.946C478.227 757.235 478.855 757.658 479.384 758.19C479.912 758.722 480.331 759.353 480.615 760.047C480.9 760.741 481.045 761.485 481.043 762.235V762.235Z" fill="white"/>
<path d="M481.043 739.15C481.041 740.279 480.705 741.382 480.077 742.32C479.449 743.257 478.557 743.988 477.515 744.418C476.473 744.848 475.327 744.959 474.222 744.737C473.116 744.515 472.102 743.97 471.306 743.17C470.51 742.37 469.969 741.352 469.751 740.244C469.533 739.137 469.648 737.989 470.081 736.947C470.514 735.904 471.246 735.014 472.184 734.388C473.123 733.763 474.225 733.43 475.353 733.432C476.101 733.433 476.842 733.582 477.533 733.87C478.224 734.158 478.852 734.58 479.38 735.111C479.908 735.642 480.327 736.272 480.613 736.965C480.898 737.658 481.044 738.4 481.043 739.15Z" fill="white"/>
<path d="M481.043 716.065C481.041 717.194 480.705 718.297 480.077 719.235C479.449 720.172 478.557 720.902 477.515 721.333C476.473 721.763 475.327 721.874 474.222 721.652C473.116 721.43 472.102 720.885 471.306 720.085C470.51 719.285 469.969 718.267 469.751 717.159C469.533 716.052 469.648 714.904 470.081 713.862C470.514 712.819 471.246 711.929 472.184 711.303C473.123 710.678 474.225 710.345 475.353 710.347C476.101 710.348 476.842 710.497 477.533 710.785C478.224 711.073 478.852 711.494 479.38 712.025C479.908 712.556 480.327 713.186 480.613 713.88C480.898 714.573 481.044 715.315 481.043 716.065V716.065Z" fill="white"/>
<path d="M481.043 692.98C481.041 694.109 480.705 695.212 480.077 696.149C479.449 697.087 478.557 697.817 477.515 698.248C476.473 698.678 475.327 698.789 474.222 698.567C473.116 698.345 472.102 697.799 471.306 697C470.51 696.2 469.969 695.182 469.751 694.074C469.533 692.966 469.648 691.819 470.081 690.777C470.514 689.734 471.246 688.844 472.184 688.218C473.123 687.592 474.225 687.26 475.353 687.261C476.102 687.26 476.844 687.407 477.536 687.694C478.228 687.982 478.857 688.403 479.386 688.935C479.915 689.466 480.333 690.097 480.618 690.791C480.902 691.486 481.047 692.229 481.043 692.98V692.98Z" fill="white"/>
<path d="M481.043 669.895C481.041 671.024 480.705 672.127 480.077 673.064C479.449 674.002 478.557 674.732 477.515 675.163C476.473 675.593 475.327 675.704 474.222 675.482C473.116 675.26 472.102 674.714 471.306 673.915C470.51 673.115 469.969 672.097 469.751 670.989C469.533 669.881 469.648 668.734 470.081 667.691C470.514 666.649 471.246 665.759 472.184 665.133C473.123 664.507 474.225 664.174 475.353 664.176C476.864 664.181 478.311 664.786 479.377 665.858C480.444 666.93 481.043 668.381 481.043 669.895V669.895Z" fill="white"/>
<path d="M458.061 762.235C458.057 763.363 457.719 764.465 457.091 765.401C456.462 766.337 455.571 767.066 454.529 767.495C453.487 767.924 452.341 768.035 451.237 767.812C450.133 767.59 449.119 767.045 448.324 766.246C447.529 765.446 446.988 764.429 446.769 763.322C446.551 762.216 446.665 761.069 447.097 760.027C447.529 758.985 448.259 758.094 449.196 757.468C450.133 756.842 451.234 756.507 452.361 756.507C453.111 756.509 453.853 756.658 454.545 756.946C455.237 757.235 455.866 757.657 456.395 758.189C456.924 758.721 457.344 759.352 457.63 760.046C457.915 760.74 458.062 761.484 458.061 762.235V762.235Z" fill="white"/>
<path d="M458.061 739.15C458.059 740.278 457.723 741.381 457.095 742.319C456.468 743.256 455.577 743.986 454.535 744.417C453.494 744.848 452.348 744.959 451.243 744.738C450.138 744.517 449.123 743.972 448.327 743.173C447.531 742.375 446.989 741.357 446.77 740.25C446.551 739.143 446.664 737.996 447.096 736.953C447.528 735.911 448.258 735.02 449.195 734.393C450.132 733.766 451.234 733.432 452.361 733.432C453.873 733.434 455.323 734.038 456.392 735.11C457.46 736.182 458.061 737.635 458.061 739.15V739.15Z" fill="white"/>
<path d="M458.061 716.065C458.059 717.193 457.723 718.296 457.095 719.234C456.468 720.171 455.577 720.901 454.535 721.332C453.494 721.762 452.348 721.874 451.243 721.653C450.138 721.431 449.123 720.887 448.327 720.088C447.531 719.289 446.989 718.272 446.77 717.165C446.551 716.058 446.664 714.911 447.096 713.868C447.528 712.826 448.258 711.935 449.195 711.308C450.132 710.681 451.234 710.347 452.361 710.347C453.873 710.349 455.323 710.953 456.392 712.025C457.46 713.097 458.061 714.55 458.061 716.065V716.065Z" fill="white"/>
<path d="M458.061 692.98C458.059 694.108 457.723 695.211 457.095 696.148C456.468 697.086 455.577 697.816 454.535 698.247C453.494 698.677 452.348 698.789 451.243 698.568C450.138 698.346 449.123 697.802 448.327 697.003C447.531 696.204 446.989 695.187 446.77 694.08C446.551 692.973 446.664 691.826 447.096 690.783C447.528 689.741 448.258 688.85 449.195 688.223C450.132 687.596 451.234 687.261 452.361 687.261C453.111 687.26 453.853 687.407 454.546 687.694C455.239 687.981 455.868 688.403 456.397 688.934C456.927 689.465 457.347 690.096 457.632 690.791C457.917 691.485 458.063 692.229 458.061 692.98V692.98Z" fill="white"/>
<path d="M458.061 669.895C458.059 671.023 457.723 672.126 457.095 673.063C456.468 674.001 455.577 674.731 454.535 675.162C453.494 675.592 452.348 675.704 451.243 675.483C450.138 675.261 449.123 674.717 448.327 673.918C447.531 673.119 446.989 672.102 446.77 670.995C446.551 669.888 446.664 668.741 447.096 667.698C447.528 666.656 448.258 665.765 449.195 665.138C450.132 664.511 451.234 664.176 452.361 664.176C453.873 664.181 455.321 664.786 456.389 665.857C457.457 666.929 458.058 668.38 458.061 669.895V669.895Z" fill="white"/>
<path d="M435.059 762.235C435.053 763.361 434.715 764.46 434.086 765.393C433.458 766.327 432.567 767.053 431.527 767.479C430.486 767.906 429.343 768.015 428.241 767.792C427.14 767.569 426.128 767.024 425.336 766.226C424.543 765.427 424.004 764.412 423.786 763.307C423.569 762.203 423.683 761.058 424.115 760.019C424.547 758.979 425.276 758.091 426.211 757.466C427.146 756.841 428.245 756.507 429.369 756.507C430.119 756.507 430.861 756.656 431.553 756.944C432.246 757.232 432.874 757.654 433.403 758.187C433.932 758.719 434.35 759.351 434.634 760.045C434.919 760.74 435.063 761.484 435.059 762.235V762.235Z" fill="white"/>
<path d="M435.059 739.15C435.055 740.276 434.718 741.376 434.091 742.311C433.463 743.245 432.573 743.973 431.533 744.401C430.493 744.83 429.35 744.94 428.247 744.718C427.145 744.496 426.133 743.951 425.339 743.153C424.545 742.356 424.005 741.34 423.787 740.235C423.569 739.13 423.683 737.986 424.114 736.945C424.545 735.905 425.275 735.016 426.21 734.391C427.145 733.765 428.245 733.432 429.369 733.432C430.118 733.432 430.859 733.58 431.551 733.867C432.243 734.155 432.871 734.576 433.399 735.108C433.928 735.639 434.347 736.269 434.632 736.963C434.916 737.657 435.062 738.4 435.059 739.15Z" fill="white"/>
<path d="M435.059 716.065C435.055 717.191 434.718 718.291 434.091 719.226C433.463 720.16 432.573 720.888 431.533 721.316C430.493 721.744 429.35 721.855 428.247 721.632C427.145 721.41 426.133 720.866 425.339 720.068C424.545 719.271 424.005 718.255 423.787 717.15C423.569 716.045 423.683 714.9 424.114 713.86C424.545 712.82 425.275 711.931 426.21 711.306C427.145 710.68 428.245 710.347 429.369 710.347C430.118 710.347 430.859 710.495 431.551 710.782C432.243 711.07 432.871 711.491 433.399 712.023C433.928 712.554 434.347 713.184 434.632 713.878C434.916 714.572 435.062 715.315 435.059 716.065Z" fill="white"/>
<path d="M435.059 692.98C435.055 694.106 434.718 695.206 434.091 696.14C433.463 697.075 432.573 697.803 431.533 698.231C430.493 698.659 429.35 698.769 428.247 698.547C427.145 698.325 426.133 697.781 425.339 696.983C424.545 696.185 424.005 695.17 423.787 694.065C423.569 692.96 423.683 691.815 424.114 690.775C424.545 689.735 425.275 688.846 426.21 688.221C427.145 687.595 428.245 687.261 429.369 687.261C430.118 687.26 430.86 687.407 431.553 687.694C432.245 687.982 432.873 688.403 433.402 688.935C433.931 689.466 434.35 690.097 434.634 690.791C434.919 691.486 435.063 692.229 435.059 692.98V692.98Z" fill="white"/>
<path d="M435.059 669.895C435.055 671.021 434.718 672.121 434.091 673.055C433.463 673.99 432.573 674.717 431.533 675.146C430.493 675.574 429.35 675.684 428.247 675.462C427.145 675.24 426.133 674.696 425.339 673.898C424.545 673.1 424.005 672.085 423.787 670.98C423.569 669.875 423.683 668.73 424.114 667.69C424.545 666.65 425.275 665.761 426.21 665.136C427.145 664.51 428.245 664.176 429.369 664.176C430.118 664.178 430.859 664.327 431.55 664.615C432.241 664.903 432.868 665.324 433.397 665.855C433.925 666.386 434.344 667.016 434.629 667.709C434.914 668.402 435.06 669.145 435.059 669.895Z" fill="white"/>
<path d="M412.077 762.235C412.071 763.361 411.733 764.46 411.104 765.393C410.475 766.327 409.585 767.053 408.545 767.479C407.504 767.906 406.361 768.015 405.259 767.792C404.157 767.569 403.146 767.024 402.353 766.226C401.561 765.427 401.021 764.412 400.804 763.307C400.587 762.203 400.701 761.058 401.133 760.019C401.564 758.979 402.294 758.091 403.229 757.466C404.164 756.841 405.263 756.507 406.387 756.507C407.136 756.509 407.878 756.658 408.57 756.946C409.261 757.235 409.889 757.658 410.418 758.19C410.946 758.722 411.365 759.353 411.65 760.047C411.934 760.741 412.08 761.485 412.077 762.235Z" fill="white"/>
<path d="M412.077 739.15C412.073 740.276 411.736 741.376 411.109 742.311C410.481 743.245 409.591 743.973 408.551 744.401C407.511 744.83 406.368 744.94 405.265 744.718C404.163 744.496 403.151 743.951 402.357 743.153C401.563 742.356 401.023 741.34 400.805 740.235C400.587 739.13 400.701 737.986 401.132 736.945C401.563 735.905 402.292 735.016 403.228 734.391C404.163 733.765 405.262 733.432 406.387 733.432C407.135 733.433 407.876 733.582 408.567 733.87C409.258 734.158 409.886 734.58 410.414 735.111C410.943 735.642 411.362 736.272 411.647 736.965C411.932 737.658 412.078 738.4 412.077 739.15V739.15Z" fill="white"/>
<path d="M412.077 716.065C412.073 717.191 411.736 718.291 411.109 719.226C410.481 720.16 409.591 720.888 408.551 721.316C407.511 721.744 406.368 721.855 405.265 721.632C404.163 721.41 403.151 720.866 402.357 720.068C401.563 719.271 401.023 718.255 400.805 717.15C400.587 716.045 400.701 714.9 401.132 713.86C401.563 712.82 402.292 711.931 403.228 711.306C404.163 710.68 405.262 710.347 406.387 710.347C407.135 710.348 407.876 710.497 408.567 710.785C409.258 711.073 409.886 711.494 410.414 712.025C410.943 712.556 411.362 713.186 411.647 713.88C411.932 714.573 412.078 715.315 412.077 716.065V716.065Z" fill="white"/>
<path d="M412.077 692.98C412.073 694.106 411.736 695.206 411.109 696.14C410.481 697.075 409.591 697.803 408.551 698.231C407.511 698.659 406.368 698.769 405.265 698.547C404.163 698.325 403.151 697.781 402.357 696.983C401.563 696.185 401.023 695.17 400.805 694.065C400.587 692.96 400.701 691.815 401.132 690.775C401.563 689.735 402.292 688.846 403.228 688.221C404.163 687.595 405.262 687.261 406.387 687.261C407.136 687.26 407.878 687.407 408.57 687.694C409.263 687.982 409.891 688.403 410.42 688.935C410.949 689.466 411.368 690.097 411.652 690.791C411.936 691.486 412.081 692.229 412.077 692.98V692.98Z" fill="white"/>
<path d="M412.077 669.895C412.073 671.021 411.736 672.121 411.109 673.055C410.481 673.99 409.591 674.717 408.551 675.146C407.511 675.574 406.368 675.684 405.265 675.462C404.163 675.24 403.151 674.696 402.357 673.898C401.563 673.1 401.023 672.085 400.805 670.98C400.587 669.875 400.701 668.73 401.132 667.69C401.563 666.65 402.292 665.761 403.228 665.136C404.163 664.51 405.262 664.176 406.387 664.176C407.898 664.181 409.345 664.786 410.412 665.858C411.478 666.93 412.077 668.381 412.077 669.895V669.895Z" fill="white"/>
<path d="M258.976 908L258.976 778.636L129.811 778.636L129.811 908L258.976 908Z" fill="#ECB658"/>
<path d="M258.976 908L258.976 778.636L129.811 778.636L129.811 908L258.976 908Z" fill="#ECB658"/>
<path d="M258.976 908C224.719 908 191.865 894.371 167.642 870.11C143.419 845.85 129.811 812.946 129.811 778.636V778.636C164.067 778.636 196.921 792.266 221.144 816.526C245.367 840.786 258.976 873.691 258.976 908Z" fill="#F1CCBB"/>
<path d="M388.14 389.463L388.14 260.099L258.976 260.099L258.976 389.463L388.14 389.463Z" fill="white"/>
<path d="M388.14 389.463C353.884 389.463 321.03 375.834 296.807 351.573C272.584 327.313 258.976 294.409 258.976 260.099C293.232 260.099 326.086 273.728 350.309 297.989C374.532 322.249 388.14 355.154 388.14 389.463V389.463Z" fill="#F1CCBB"/>
<path d="M516.842 648.268L516.842 518.904L387.677 518.904L387.677 648.268L516.842 648.268Z" fill="white"/>
<path d="M516.842 518.904L387.668 518.904L387.668 519.735L516.408 648.268L516.842 647.833L516.842 518.904Z" fill="#ECB658"/>
<path d="M516.842 518.904L450.991 518.904L516.408 584.412L516.842 583.987L516.842 518.904Z" fill="#E08E59"/>
<path d="M258.976 648.268L258.976 518.904L129.811 518.904L129.811 648.268L258.976 648.268Z" fill="white"/>
<path d="M258.976 518.904L193.135 518.904L258.542 584.412L258.976 583.987L258.976 518.904Z" fill="#E08E59"/>
<path d="M258.976 648.268L193.135 648.268L258.542 582.76L258.976 583.185L258.976 648.268Z" fill="#E08E59"/>
<path d="M129.811 518.904L195.652 518.904L130.245 584.412L129.811 583.987L129.811 518.904Z" fill="#E08E59"/>
<path d="M129.811 648.268L195.652 648.268L130.245 582.76L129.811 583.185L129.811 648.268Z" fill="#E08E59"/>
<path d="M384.909 779.931L384.909 777.989L257.683 777.989L257.683 648.625L386.848 777.989L384.909 779.931Z" fill="#ECB658"/>
<path d="M386.848 777.989L386.848 759.502L258.05 759.502L258.05 777.989L386.848 777.989Z" fill="#F1CCBB"/>
<path d="M386.848 741.024L386.848 722.536L258.05 722.536L258.05 741.024L386.848 741.024Z" fill="#F1CCBB"/>
<path d="M386.848 667.103L386.848 648.625L258.05 648.625L258.05 667.103L386.848 667.103Z" fill="#F1CCBB"/>
<path d="M386.848 704.059L386.848 685.581L258.05 685.581L258.05 704.059L386.848 704.059Z" fill="#F1CCBB"/>
<path d="M149.022 260.08L149.022 131.083L130.563 131.083L130.563 260.08L149.022 260.08Z" fill="#F1CCBB"/>
<path d="M185.93 260.08L185.93 131.083L167.471 131.083L167.471 260.08L185.93 260.08Z" fill="#F1CCBB"/>
<path d="M259.737 260.08L259.737 131.083L241.288 131.083L241.288 260.08L259.737 260.08Z" fill="#F1CCBB"/>
<path d="M222.839 260.08L222.839 131.083L204.389 131.083L204.389 260.08L222.839 260.08Z" fill="#F1CCBB"/>
<path d="M257.683 777.989L257.683 648.625L128.519 648.625L128.519 777.989L257.683 777.989Z" fill="white"/>
<path d="M128.519 754.498C128.516 754.064 128.627 753.636 128.842 753.259C129.056 752.881 129.366 752.566 129.741 752.347C130.115 752.128 130.541 752.011 130.975 752.009C131.409 752.007 131.836 752.119 132.212 752.335L148.752 761.607L165.282 752.335C165.653 752.126 166.072 752.016 166.497 752.016C166.923 752.016 167.342 752.126 167.713 752.335L184.233 761.598L200.763 752.335C201.134 752.126 201.553 752.016 201.978 752.016C202.404 752.016 202.823 752.126 203.194 752.335L219.714 761.598L236.244 752.335C236.615 752.126 237.034 752.016 237.459 752.016C237.885 752.016 238.303 752.126 238.674 752.335L256.41 762.283C256.984 762.606 257.407 763.144 257.585 763.779C257.763 764.414 257.682 765.094 257.36 765.669C257.038 766.244 256.501 766.667 255.867 766.846C255.233 767.024 254.554 766.943 253.98 766.62L237.459 757.319L220.929 766.582C220.558 766.791 220.14 766.901 219.714 766.901C219.288 766.901 218.87 766.791 218.499 766.582L201.93 757.319L185.4 766.582C185.029 766.791 184.61 766.901 184.185 766.901C183.759 766.901 183.341 766.791 182.97 766.582L166.497 757.319L149.958 766.582C149.588 766.791 149.171 766.901 148.747 766.901C148.323 766.901 147.906 766.791 147.537 766.582L129.782 756.633C129.403 756.419 129.087 756.11 128.865 755.735C128.643 755.36 128.524 754.934 128.519 754.498V754.498Z" fill="#ECB658"/>
<path d="M128.519 729.626C128.514 729.191 128.624 728.762 128.838 728.383C129.052 728.004 129.362 727.688 129.737 727.468C130.111 727.247 130.538 727.13 130.972 727.127C131.407 727.124 131.835 727.237 132.212 727.453L148.752 736.726L165.282 727.453C165.653 727.244 166.072 727.134 166.497 727.134C166.923 727.134 167.342 727.244 167.713 727.453L184.233 736.726L200.763 727.453C201.134 727.244 201.553 727.134 201.978 727.134C202.404 727.134 202.823 727.244 203.194 727.453L219.714 736.726L236.244 727.453C236.615 727.244 237.034 727.134 237.459 727.134C237.885 727.134 238.303 727.244 238.674 727.453L256.41 737.402C256.706 737.556 256.967 737.768 257.18 738.025C257.392 738.282 257.551 738.579 257.646 738.899C257.741 739.219 257.772 739.555 257.735 739.886C257.698 740.218 257.596 740.539 257.433 740.83C257.27 741.121 257.05 741.377 256.787 741.581C256.524 741.786 256.222 741.935 255.9 742.021C255.578 742.107 255.242 742.127 254.912 742.08C254.583 742.033 254.265 741.92 253.98 741.748L237.459 732.476L220.929 741.748C220.558 741.957 220.14 742.067 219.714 742.067C219.288 742.067 218.87 741.957 218.499 741.748L201.978 732.476L185.448 741.748C185.077 741.957 184.659 742.067 184.233 742.067C183.807 742.067 183.389 741.957 183.018 741.748L166.497 732.476L149.958 741.748C149.588 741.957 149.171 742.067 148.747 742.067C148.323 742.067 147.906 741.957 147.537 741.748L129.782 731.799C129.399 731.581 129.08 731.265 128.858 730.883C128.636 730.502 128.519 730.068 128.519 729.626Z" fill="#ECB658"/>
<path d="M128.519 704.744C128.514 704.309 128.624 703.88 128.838 703.501C129.052 703.122 129.362 702.806 129.737 702.586C130.112 702.365 130.538 702.248 130.973 702.245C131.407 702.243 131.835 702.355 132.212 702.571L148.752 711.844L165.282 702.571C165.654 702.365 166.072 702.256 166.497 702.256C166.923 702.256 167.341 702.365 167.713 702.571L184.233 711.834L200.763 702.561C201.135 702.355 201.553 702.247 201.978 702.247C202.403 702.247 202.822 702.355 203.194 702.561L219.714 711.824L236.244 702.552C236.617 702.347 237.035 702.24 237.459 702.24C237.884 702.24 238.302 702.347 238.674 702.552L256.41 712.51C256.984 712.833 257.407 713.371 257.585 714.006C257.763 714.641 257.682 715.321 257.36 715.896C257.038 716.471 256.501 716.894 255.867 717.073C255.233 717.251 254.554 717.17 253.98 716.847L237.459 707.574L220.929 716.847C220.558 717.056 220.14 717.166 219.714 717.166C219.288 717.166 218.87 717.056 218.499 716.847L201.978 707.574L185.448 716.847C185.077 717.056 184.659 717.166 184.233 717.166C183.807 717.166 183.389 717.056 183.018 716.847L166.497 707.574L149.958 716.847C149.588 717.056 149.171 717.166 148.747 717.166C148.323 717.166 147.906 717.056 147.537 716.847L129.782 706.898C129.4 706.683 129.082 706.37 128.86 705.992C128.638 705.614 128.52 705.183 128.519 704.744Z" fill="#ECB658"/>
<path d="M128.519 679.863C128.516 679.428 128.627 679.001 128.842 678.623C129.056 678.245 129.366 677.931 129.741 677.711C130.115 677.492 130.541 677.375 130.975 677.373C131.409 677.371 131.836 677.483 132.212 677.699L148.752 686.972L165.282 677.699C165.653 677.49 166.072 677.38 166.497 677.38C166.923 677.38 167.342 677.49 167.713 677.699L184.233 686.972L200.763 677.699C201.134 677.49 201.553 677.38 201.978 677.38C202.404 677.38 202.823 677.49 203.194 677.699L219.714 686.972L236.244 677.699C236.615 677.49 237.034 677.38 237.459 677.38C237.885 677.38 238.304 677.49 238.675 677.699L256.41 687.648C256.964 687.982 257.367 688.518 257.533 689.144C257.699 689.77 257.615 690.436 257.299 691.001C256.983 691.566 256.46 691.986 255.84 692.171C255.221 692.357 254.554 692.293 253.98 691.994L237.459 682.722L220.929 691.994C220.557 692.199 220.139 692.306 219.714 692.306C219.289 692.306 218.871 692.199 218.499 691.994L201.978 682.722L185.448 691.994C185.076 692.199 184.658 692.306 184.233 692.306C183.808 692.306 183.39 692.199 183.018 691.994L166.497 682.722L149.958 691.994C149.587 692.199 149.17 692.306 148.747 692.306C148.324 692.306 147.908 692.199 147.537 691.994L129.782 682.036C129.397 681.82 129.076 681.504 128.854 681.122C128.632 680.74 128.516 680.305 128.519 679.863V679.863Z" fill="#ECB658"/>
<path d="M128.519 654.991C128.514 654.555 128.624 654.126 128.838 653.747C129.052 653.368 129.362 653.053 129.737 652.832C130.112 652.612 130.538 652.494 130.973 652.492C131.407 652.489 131.835 652.601 132.212 652.817L148.752 662.09L165.282 652.817C165.655 652.613 166.073 652.506 166.497 652.506C166.922 652.506 167.34 652.613 167.713 652.817L184.233 662.09L200.763 652.817C201.136 652.613 201.554 652.506 201.978 652.506C202.403 652.506 202.821 652.613 203.194 652.817L219.714 662.09L236.244 652.817C236.617 652.613 237.035 652.506 237.459 652.506C237.884 652.506 238.302 652.613 238.674 652.817L256.41 662.776C256.695 662.936 256.945 663.15 257.146 663.407C257.348 663.663 257.497 663.957 257.585 664.271C257.673 664.586 257.699 664.915 257.66 665.239C257.622 665.563 257.52 665.877 257.36 666.161C257.201 666.446 256.987 666.697 256.73 666.898C256.474 667.1 256.181 667.25 255.867 667.338C255.553 667.426 255.225 667.452 254.901 667.413C254.577 667.375 254.264 667.273 253.98 667.113L237.459 657.84L220.929 667.113C220.558 667.322 220.14 667.432 219.714 667.432C219.288 667.432 218.87 667.322 218.499 667.113L201.93 657.83L185.4 667.103C185.029 667.312 184.61 667.422 184.185 667.422C183.759 667.422 183.341 667.312 182.97 667.103L166.449 657.83L149.909 667.103C149.54 667.312 149.123 667.422 148.699 667.422C148.275 667.422 147.858 667.312 147.489 667.103L129.734 657.154C129.359 656.932 129.05 656.615 128.837 656.235C128.623 655.856 128.514 655.426 128.519 654.991V654.991Z" fill="#ECB658"/>
<path d="M646.691 648.268L646.691 518.904L517.527 518.904L517.527 648.268L646.691 648.268Z" fill="white"/>
<path d="M518.809 631.133C518.809 626.651 521.066 624.371 523.043 622.324C525.02 620.276 526.563 618.721 526.563 615.272C526.563 611.824 524.933 610.153 523.043 608.221C521.153 606.29 518.809 603.894 518.809 599.422C518.809 594.95 521.066 592.661 523.043 590.613C525.02 588.565 526.563 587.02 526.563 583.562C526.563 580.104 524.933 578.452 523.043 576.52C521.153 574.589 518.809 572.193 518.809 567.711C518.809 563.229 521.066 560.95 523.043 558.912C525.02 556.874 526.563 555.319 526.563 551.871C526.563 548.422 524.933 546.751 523.043 544.829C521.153 542.907 518.809 540.492 518.809 536.02C518.809 531.548 521.066 529.259 523.043 527.211C525.02 525.163 526.563 523.618 526.563 520.169C526.563 519.826 526.699 519.497 526.942 519.254C527.184 519.011 527.513 518.875 527.856 518.875C528.198 518.875 528.527 519.011 528.769 519.254C529.012 519.497 529.148 519.826 529.148 520.169C529.148 524.642 526.891 526.931 524.905 528.978C522.918 531.026 521.394 532.572 521.394 536.02C521.394 539.468 523.024 541.139 524.905 543.061C526.785 544.984 529.148 547.398 529.148 551.871C529.148 556.343 526.891 558.632 524.905 560.67C522.918 562.708 521.394 564.263 521.394 567.711C521.394 571.16 523.024 572.831 524.905 574.762C526.785 576.694 529.148 579.09 529.148 583.562C529.148 588.034 526.891 590.323 524.905 592.371C522.918 594.419 521.394 595.964 521.394 599.422C521.394 602.88 523.024 604.532 524.905 606.463C526.785 608.395 529.148 610.791 529.148 615.272C529.148 619.754 526.891 622.034 524.905 624.082C522.918 626.129 521.394 627.675 521.394 631.133C521.394 634.591 523.024 636.252 524.905 638.184C526.785 640.116 529.148 642.511 529.148 646.993C529.148 647.336 529.012 647.665 528.769 647.908C528.527 648.151 528.198 648.287 527.856 648.287C527.513 648.287 527.184 648.151 526.942 647.908C526.699 647.665 526.563 647.336 526.563 646.993C526.563 643.535 524.933 641.874 523.043 639.942C521.153 638.01 518.809 635.615 518.809 631.133Z" fill="#E08E59"/>
<path d="M538.184 631.133C538.184 626.651 540.441 624.371 542.418 622.324C544.395 620.276 545.938 618.721 545.938 615.272C545.938 611.824 544.309 610.153 542.418 608.221C540.528 606.29 538.185 603.894 538.185 599.422C538.185 594.95 540.441 592.661 542.418 590.613C544.395 588.565 545.938 587.02 545.938 583.562C545.938 580.104 544.309 578.452 542.418 576.52C540.528 574.588 538.185 572.193 538.185 567.711C538.185 563.229 540.441 560.95 542.418 558.912C544.395 556.874 545.938 555.319 545.938 551.87C545.938 548.422 544.299 546.751 542.37 544.819C540.441 542.887 538.136 540.482 538.136 536.01C538.136 531.538 540.393 529.249 542.37 527.201C544.347 525.153 545.89 523.608 545.89 520.16C545.89 519.816 546.026 519.487 546.269 519.244C546.511 519.002 546.84 518.865 547.183 518.865C547.525 518.865 547.854 519.002 548.096 519.244C548.339 519.487 548.475 519.816 548.475 520.16C548.475 524.632 546.218 526.921 544.231 528.969C542.245 531.016 540.721 532.562 540.721 536.01C540.721 539.459 542.351 541.13 544.231 543.052C546.112 544.974 548.475 547.389 548.475 551.861C548.475 556.333 546.218 558.622 544.231 560.66C542.245 562.698 540.721 564.253 540.721 567.702C540.721 571.15 542.37 572.831 544.299 574.762C546.228 576.694 548.542 579.09 548.542 583.562C548.542 588.034 546.286 590.323 544.299 592.371C542.312 594.419 540.788 595.964 540.788 599.422C540.788 602.88 542.418 604.532 544.299 606.463C546.18 608.395 548.542 610.791 548.542 615.272C548.542 619.754 546.286 622.034 544.299 624.082C542.312 626.129 540.788 627.675 540.788 631.133C540.788 634.591 542.418 636.252 544.299 638.184C546.18 640.116 548.542 642.511 548.542 646.993C548.542 647.336 548.406 647.665 548.164 647.908C547.922 648.151 547.593 648.287 547.25 648.287C546.907 648.287 546.579 648.151 546.336 647.908C546.094 647.665 545.958 647.336 545.958 646.993C545.958 643.535 544.328 641.874 542.438 639.942C540.547 638.01 538.184 635.614 538.184 631.133Z" fill="#E08E59"/>
<path d="M557.56 631.133C557.56 626.651 559.807 624.371 561.794 622.324C563.78 620.276 565.314 618.721 565.314 615.272C565.314 611.824 563.684 610.153 561.794 608.221C559.903 606.29 557.56 603.894 557.56 599.422C557.56 594.95 559.807 592.661 561.794 590.613C563.78 588.565 565.314 587.02 565.314 583.562C565.314 580.104 563.684 578.452 561.794 576.52C559.903 574.589 557.56 572.193 557.56 567.711C557.56 563.229 559.807 560.95 561.794 558.912C563.78 556.874 565.314 555.319 565.314 551.871C565.314 548.422 563.684 546.751 561.794 544.829C559.903 542.907 557.56 540.492 557.56 536.02C557.56 531.548 559.807 529.259 561.794 527.211C563.78 525.163 565.314 523.618 565.314 520.169C565.314 519.826 565.45 519.497 565.692 519.254C565.935 519.011 566.263 518.875 566.606 518.875C566.949 518.875 567.277 519.011 567.52 519.254C567.762 519.497 567.898 519.826 567.898 520.169C567.898 524.642 565.642 526.931 563.655 528.978C561.668 531.026 560.144 532.572 560.144 536.02C560.144 539.468 561.774 541.139 563.655 543.061C565.535 544.984 567.898 547.398 567.898 551.871C567.898 556.343 565.642 558.632 563.655 560.67C561.668 562.708 560.144 564.263 560.144 567.711C560.144 571.16 561.774 572.831 563.655 574.762C565.535 576.694 567.898 579.09 567.898 583.562C567.898 588.034 565.642 590.323 563.655 592.371C561.668 594.419 560.144 595.964 560.144 599.422C560.144 602.88 561.774 604.532 563.655 606.463C565.535 608.395 567.898 610.791 567.898 615.272C567.898 619.754 565.642 622.034 563.655 624.082C561.668 626.129 560.144 627.675 560.144 631.133C560.144 634.591 561.774 636.252 563.655 638.184C565.535 640.116 567.898 642.511 567.898 646.993C567.898 647.336 567.762 647.665 567.52 647.908C567.277 648.151 566.949 648.287 566.606 648.287C566.263 648.287 565.935 648.151 565.692 647.908C565.45 647.665 565.314 647.336 565.314 646.993C565.314 643.535 563.684 641.874 561.794 639.942C559.903 638.01 557.56 635.615 557.56 631.133Z" fill="#E08E59"/>
<path d="M576.935 631.133C576.935 626.651 579.182 624.371 581.169 622.324C583.155 620.276 584.689 618.721 584.689 615.272C584.689 611.824 583.059 610.153 581.169 608.221C579.278 606.29 576.935 603.894 576.935 599.422C576.935 594.95 579.182 592.661 581.169 590.613C583.155 588.565 584.689 587.02 584.689 583.562C584.689 580.104 583.059 578.452 581.169 576.52C579.278 574.589 576.935 572.193 576.935 567.711C576.935 563.229 579.182 560.95 581.169 558.912C583.155 556.874 584.689 555.319 584.689 551.871C584.689 548.422 583.059 546.751 581.169 544.829C579.278 542.907 576.935 540.492 576.935 536.02C576.935 531.548 579.182 529.259 581.169 527.211C583.155 525.163 584.689 523.618 584.689 520.169C584.689 519.826 584.825 519.497 585.067 519.254C585.31 519.011 585.638 518.875 585.981 518.875C586.324 518.875 586.653 519.011 586.895 519.254C587.137 519.497 587.273 519.826 587.273 520.169C587.273 524.642 585.017 526.931 583.03 528.978C581.043 531.026 579.519 532.572 579.519 536.02C579.519 539.468 581.149 541.139 583.03 543.061C584.911 544.984 587.273 547.398 587.273 551.871C587.273 556.343 585.017 558.632 583.03 560.67C581.043 562.708 579.519 564.263 579.519 567.711C579.519 571.16 581.149 572.831 583.03 574.762C584.911 576.694 587.273 579.09 587.273 583.562C587.273 588.034 585.017 590.323 583.03 592.371C581.043 594.419 579.519 595.964 579.519 599.422C579.519 602.88 581.149 604.532 583.03 606.463C584.911 608.395 587.273 610.791 587.273 615.272C587.273 619.754 585.017 622.034 583.03 624.082C581.043 626.129 579.519 627.675 579.519 631.133C579.519 634.591 581.149 636.252 583.03 638.184C584.911 640.116 587.273 642.511 587.273 646.993C587.273 647.336 587.137 647.665 586.895 647.908C586.653 648.151 586.324 648.287 585.981 648.287C585.638 648.287 585.31 648.151 585.067 647.908C584.825 647.665 584.689 647.336 584.689 646.993C584.689 643.535 583.059 641.874 581.169 639.942C579.278 638.01 576.935 635.615 576.935 631.133Z" fill="#E08E59"/>
<path d="M596.31 631.133C596.31 626.651 598.557 624.371 600.544 622.324C602.531 620.276 604.064 618.721 604.064 615.272C604.064 611.824 602.434 610.153 600.544 608.221C598.654 606.29 596.31 603.894 596.31 599.422C596.31 594.95 598.557 592.661 600.544 590.613C602.531 588.565 604.064 587.02 604.064 583.562C604.064 580.104 602.434 578.452 600.544 576.52C598.654 574.589 596.31 572.193 596.31 567.711C596.31 563.229 598.557 560.95 600.544 558.912C602.531 556.874 604.064 555.319 604.064 551.871C604.064 548.422 602.434 546.751 600.544 544.829C598.654 542.907 596.31 540.492 596.31 536.02C596.31 531.548 598.557 529.259 600.544 527.211C602.531 525.163 604.064 523.618 604.064 520.169C604.064 519.826 604.2 519.497 604.443 519.254C604.685 519.011 605.014 518.875 605.356 518.875C605.699 518.875 606.028 519.011 606.27 519.254C606.513 519.497 606.649 519.826 606.649 520.169C606.649 524.642 604.392 526.931 602.405 528.978C600.419 531.026 598.895 532.572 598.895 536.02C598.895 539.468 600.525 541.139 602.405 543.061C604.286 544.984 606.649 547.398 606.649 551.871C606.649 556.343 604.392 558.632 602.405 560.67C600.419 562.708 598.895 564.263 598.895 567.711C598.895 571.16 600.525 572.831 602.405 574.762C604.286 576.694 606.649 579.09 606.649 583.562C606.649 588.034 604.392 590.323 602.405 592.371C600.419 594.419 598.895 595.964 598.895 599.422C598.895 602.88 600.525 604.532 602.405 606.463C604.286 608.395 606.649 610.791 606.649 615.272C606.649 619.754 604.392 622.034 602.405 624.082C600.419 626.129 598.895 627.675 598.895 631.133C598.895 634.591 600.525 636.252 602.405 638.184C604.286 640.116 606.649 642.511 606.649 646.993C606.649 647.336 606.513 647.665 606.27 647.908C606.028 648.151 605.699 648.287 605.356 648.287C605.014 648.287 604.685 648.151 604.443 647.908C604.2 647.665 604.064 647.336 604.064 646.993C604.064 643.535 602.434 641.874 600.544 639.942C598.654 638.01 596.31 635.615 596.31 631.133Z" fill="#E08E59"/>
<path d="M615.666 631.133C615.666 626.651 617.913 624.371 619.9 622.324C621.886 620.276 623.42 618.721 623.42 615.272C623.42 611.824 621.79 610.153 619.9 608.221C618.009 606.29 615.666 603.894 615.666 599.422C615.666 594.95 617.913 592.661 619.9 590.613C621.886 588.565 623.42 587.02 623.42 583.562C623.42 580.104 621.79 578.452 619.9 576.52C618.009 574.589 615.666 572.193 615.666 567.711C615.666 563.229 617.913 560.95 619.9 558.912C621.886 556.874 623.42 555.319 623.42 551.871C623.42 548.422 621.79 546.751 619.9 544.829C618.009 542.907 615.666 540.492 615.666 536.02C615.666 531.548 617.913 529.259 619.9 527.211C621.886 525.163 623.42 523.618 623.42 520.169C623.42 519.826 623.556 519.497 623.798 519.254C624.041 519.011 624.369 518.875 624.712 518.875C625.055 518.875 625.384 519.011 625.626 519.254C625.868 519.497 626.005 519.826 626.005 520.169C626.005 524.642 623.748 526.931 621.761 528.978C619.774 531.026 618.251 532.572 618.251 536.02C618.251 539.468 619.88 541.139 621.761 543.061C623.642 544.984 626.005 547.398 626.005 551.871C626.005 556.343 623.748 558.632 621.761 560.67C619.774 562.708 618.251 564.263 618.251 567.711C618.251 571.16 619.88 572.831 621.761 574.762C623.642 576.694 626.005 579.09 626.005 583.562C626.005 588.034 623.748 590.323 621.761 592.371C619.774 594.419 618.251 595.964 618.251 599.422C618.251 602.88 619.88 604.532 621.761 606.463C623.642 608.395 626.005 610.791 626.005 615.272C626.005 619.754 623.748 622.034 621.761 624.082C619.774 626.129 618.251 627.675 618.251 631.133C618.251 634.591 619.88 636.252 621.761 638.184C623.642 640.116 626.005 642.511 626.005 646.993C626.005 647.336 625.868 647.665 625.626 647.908C625.384 648.151 625.055 648.287 624.712 648.287C624.369 648.287 624.041 648.151 623.798 647.908C623.556 647.665 623.42 647.336 623.42 646.993C623.42 643.535 621.79 641.874 619.9 639.942C618.009 638.01 615.666 635.615 615.666 631.133Z" fill="#E08E59"/>
<path d="M635.06 631.133C635.06 626.651 637.308 624.371 639.294 622.324C641.281 620.276 642.814 618.721 642.814 615.272C642.814 611.824 641.185 610.153 639.294 608.221C637.404 606.29 635.06 603.894 635.06 599.422C635.06 594.95 637.308 592.661 639.294 590.613C641.281 588.565 642.814 587.02 642.814 583.562C642.814 580.104 641.185 578.452 639.294 576.52C637.404 574.589 635.06 572.193 635.06 567.711C635.06 563.229 637.308 560.95 639.294 558.912C641.281 556.874 642.814 555.319 642.814 551.871C642.814 548.422 641.185 546.751 639.294 544.829C637.404 542.907 635.06 540.492 635.06 536.02C635.06 531.548 637.308 529.259 639.294 527.211C641.281 525.163 642.814 523.618 642.814 520.169C642.814 519.826 642.951 519.497 643.193 519.254C643.435 519.011 643.764 518.875 644.107 518.875C644.449 518.875 644.778 519.011 645.021 519.254C645.263 519.497 645.399 519.826 645.399 520.169C645.399 524.642 643.142 526.931 641.156 528.978C639.169 531.026 637.645 532.572 637.645 536.02C637.645 539.468 639.275 541.139 641.156 543.061C643.036 544.984 645.399 547.398 645.399 551.871C645.399 556.343 643.142 558.632 641.156 560.67C639.169 562.708 637.645 564.263 637.645 567.711C637.645 571.16 639.275 572.831 641.156 574.762C643.036 576.694 645.399 579.09 645.399 583.562C645.399 588.034 643.142 590.323 641.156 592.371C639.169 594.419 637.645 595.964 637.645 599.422C637.645 602.88 639.275 604.532 641.156 606.463C643.036 608.395 645.399 610.791 645.399 615.272C645.399 619.754 643.142 622.034 641.156 624.082C639.169 626.129 637.645 627.675 637.645 631.133C637.645 634.591 639.275 636.252 641.156 638.184C643.036 640.116 645.399 642.511 645.399 646.993C645.399 647.336 645.263 647.665 645.021 647.908C644.778 648.151 644.449 648.287 644.107 648.287C643.764 648.287 643.435 648.151 643.193 647.908C642.951 647.665 642.814 647.336 642.814 646.993C642.814 643.535 641.185 641.874 639.294 639.942C637.404 638.01 635.06 635.615 635.06 631.133Z" fill="#E08E59"/>
<path d="M129.811 777.989L129.811 648.625L0.646179 648.625L0.646174 777.989L129.811 777.989Z" fill="#4E6A74"/>
<path d="M129.811 777.989L129.811 648.625L0.646179 648.625L0.646174 777.989L129.811 777.989Z" fill="#4E6A74"/>
<path d="M94.571 674.096L129.811 713.312L94.137 753.011L94.571 674.096Z" fill="#E08E59"/>
<path d="M63.401 673.932L98.6409 713.148L62.967 752.846L63.401 673.932Z" fill="#E08E59"/>
<path d="M32.2406 673.768L67.4805 712.984L31.8066 752.682L32.2406 673.768Z" fill="#E08E59"/>
<path d="M1.08021 673.613L36.3201 712.829L0.646206 752.528L1.08021 673.613Z" fill="#E08E59"/>
<path d="M129.811 518.653L129.811 389.289L0.646179 389.289L0.646174 518.653L129.811 518.653Z" fill="white"/>
<path d="M129.165 519.3L129.165 389.936L6.10352e-05 389.936L5.53805e-05 519.3L129.165 519.3Z" fill="#E08E59"/>
<path d="M129.165 389.936L5.77335e-05 519.3L64.5776 519.3L64.5776 389.936L129.165 389.936Z" fill="#F1CCBB"/>
<path d="M64.5776 454.623L64.5776 389.936L-0.00961304 389.936L-0.00961586 454.623L64.5776 454.623Z" fill="#4E6A74"/>
<path d="M129.165 519.3L129.165 454.613L64.5776 454.613L64.5776 519.3L129.165 519.3Z" fill="#ECB658"/>
<path d="M516.842 389.463L516.842 260.099L387.677 260.099L387.677 389.463L516.842 389.463Z" fill="#E08E59"/>
<path d="M399.202 377.911L399.202 271.661L505.288 271.661L505.288 377.911L399.202 377.911ZM406.917 279.388L406.917 370.183L497.602 370.183L497.602 279.388L406.917 279.388Z" fill="#F1CCBB"/>
<path d="M415.173 360.93L415.173 288.632L487.398 288.632L487.398 360.93L415.173 360.93ZM422.888 296.33L422.888 353.232L479.683 353.232L479.683 296.33L422.888 296.33Z" fill="#F1CCBB"/>
<path d="M431.153 343.959L431.153 305.603L469.441 305.603L469.441 343.959L431.153 343.959ZM438.869 313.311L438.869 336.251L461.754 336.251L461.754 313.311L438.869 313.311Z" fill="#F1CCBB"/>
<path d="M130.255 129.364L130.255 -3.05176e-05L1.08984 -3.61635e-05L1.08984 129.364L130.255 129.364Z" fill="#4E6A74"/>
<path d="M130.235 0.0482788C130.235 0.0482788 131.653 33.1499 98.0043 32.2999L130.235 0.0482788Z" fill="#E08E59"/>
<path d="M130.235 0.0483098C130.235 0.0483098 98.8145 -3.02326 98.0044 32.2999L130.235 0.0483098Z" fill="#ECB658"/>
<path d="M130.235 64.6094C130.235 64.6094 131.653 31.5078 98.0043 32.3578L130.235 64.6094Z" fill="#E08E59"/>
<path d="M130.235 64.6095C130.235 64.6095 98.8145 67.681 98.0044 32.3578L130.235 64.6095Z" fill="#ECB658"/>
<path d="M65.7735 64.5901C65.7735 64.5901 64.3557 31.4982 98.0043 32.3482L65.7735 64.5901Z" fill="#E08E59"/>
<path d="M65.7735 64.5901C65.7735 64.5901 97.1942 67.6714 98.0043 32.3482L65.7735 64.5901Z" fill="#ECB658"/>
<path d="M65.7735 0.0482774C65.7735 0.0482774 64.3557 33.1402 98.0043 32.2902L65.7735 0.0482774Z" fill="#E08E59"/>
<path d="M65.7735 0.0482732C65.7735 0.0482732 97.1942 -3.03296 98.0043 32.2902L65.7735 0.0482732Z" fill="#ECB658"/>
<path d="M130.235 64.764C130.235 64.764 131.653 97.8559 98.0043 97.0156L130.235 64.764Z" fill="#E08E59"/>
<path d="M130.235 64.764C130.235 64.764 98.8145 61.6827 98.0044 97.0156L130.235 64.764Z" fill="#ECB658"/>
<path d="M130.235 129.296C130.235 129.296 131.653 96.1946 98.0043 97.0446L130.235 129.296Z" fill="#E08E59"/>
<path d="M130.235 129.296C130.235 129.296 98.8145 132.368 98.0044 97.0446L130.235 129.296Z" fill="#ECB658"/>
<path d="M65.7735 129.277C65.7735 129.277 64.3557 96.1849 98.0043 97.0253L65.7735 129.277Z" fill="#E08E59"/>
<path d="M65.7735 129.277C65.7735 129.277 97.1942 132.377 98.0043 97.0253L65.7735 129.277Z" fill="#ECB658"/>
<path d="M65.7735 64.764C65.7735 64.764 64.3557 97.8656 98.0043 97.0156L65.7735 64.764Z" fill="#E08E59"/>
<path d="M65.7735 64.764C65.7735 64.764 97.1942 61.6924 98.0043 97.0156L65.7735 64.764Z" fill="#ECB658"/>
<path d="M65.5516 0.0482788C65.5516 0.0482788 66.9789 33.1499 33.3207 32.2999L65.5516 0.0482788Z" fill="#E08E59"/>
<path d="M65.5517 0.0483098C65.5517 0.0483098 34.1309 -3.02326 33.3304 32.2999L65.5517 0.0483098Z" fill="#ECB658"/>
<path d="M65.5516 64.6094C65.5516 64.6094 66.9789 31.5078 33.3207 32.3578L65.5516 64.6094Z" fill="#E08E59"/>
<path d="M65.5517 64.6095C65.5517 64.6095 34.1212 67.6617 33.3304 32.3578L65.5517 64.6095Z" fill="#ECB658"/>
<path d="M1.0898 64.5901C1.0898 64.5901 -0.32791 31.4982 33.3207 32.3482L1.0898 64.5901Z" fill="#E08E59"/>
<path d="M1.0898 64.5901C1.0898 64.5901 32.5106 67.6714 33.3207 32.3482L1.0898 64.5901Z" fill="#ECB658"/>
<path d="M1.0898 0.0482774C1.0898 0.0482774 -0.327912 33.1402 33.3207 32.2902L1.0898 0.0482774Z" fill="#E08E59"/>
<path d="M1.0898 0.0482732C1.0898 0.0482732 32.5106 -3.03296 33.3207 32.2902L1.0898 0.0482732Z" fill="#ECB658"/>
<path d="M65.5516 64.764C65.5516 64.764 66.9789 97.8559 33.3207 97.0156L65.5516 64.764Z" fill="#E08E59"/>
<path d="M65.5517 64.764C65.5517 64.764 34.1309 61.6827 33.3304 97.0156L65.5517 64.764Z" fill="#ECB658"/>
<path d="M65.5516 129.296C65.5516 129.296 66.9789 96.1946 33.3207 97.0446L65.5516 129.296Z" fill="#E08E59"/>
<path d="M65.5517 129.296C65.5517 129.296 34.1212 132.377 33.3304 97.0445L65.5517 129.296Z" fill="#ECB658"/>
<path d="M1.0898 129.277C1.0898 129.277 -0.32791 96.1849 33.3207 97.0253L1.0898 129.277Z" fill="#E08E59"/>
<path d="M1.0898 129.277C1.0898 129.277 32.5106 132.348 33.3207 97.0253L1.0898 129.277Z" fill="#ECB658"/>
<path d="M1.0898 64.764C1.0898 64.764 -0.327912 97.8656 33.3207 97.0156L1.0898 64.764Z" fill="#E08E59"/>
<path d="M1.0898 64.764C1.0898 64.764 32.5106 61.6924 33.3207 97.0156L1.0898 64.764Z" fill="#ECB658"/>
<path d="M131.103 259.887L131.103 389.25L260.268 389.25L260.268 259.887L131.103 259.887Z" fill="#E08E59"/>
<path d="M260.249 284.933L260.249 281.069C254.645 281.049 249.277 278.809 245.316 274.838C241.355 270.868 239.124 265.489 239.108 259.877L235.251 259.877C235.266 266.514 237.904 272.875 242.588 277.57C247.272 282.265 253.622 284.912 260.249 284.933V284.933Z" fill="#4E6A74"/>
<path d="M260.249 360.891C233.509 360.861 207.874 350.208 188.968 331.271C170.061 312.333 159.427 286.657 159.399 259.877L155.542 259.877C155.572 287.686 166.615 314.348 186.248 334.013C205.882 353.679 232.501 364.741 260.268 364.774V364.774L260.268 360.911L260.249 360.891Z" fill="#4E6A74"/>
<path d="M260.249 376.858C229.282 376.822 199.594 364.486 177.697 342.555C155.801 320.625 143.484 290.891 143.448 259.877V259.877L139.59 259.877C139.626 291.919 152.35 322.639 174.972 345.298C197.594 367.956 228.265 380.702 260.258 380.741V380.741L260.258 376.877L260.249 376.858Z" fill="#4E6A74"/>
<path d="M260.249 332.832L260.249 328.968C241.968 328.935 224.447 321.643 211.526 308.692C198.605 295.74 191.339 278.186 191.322 259.877L187.464 259.877C187.487 279.209 195.161 297.743 208.804 311.418C222.447 325.093 240.947 332.794 260.249 332.832V332.832Z" fill="#4E6A74"/>
<path d="M260.249 348.808L260.249 344.944C237.751 344.909 216.185 335.942 200.277 320.009C184.368 304.076 175.415 282.477 175.38 259.945L171.522 259.945C171.568 283.498 180.931 306.075 197.56 322.73C214.19 339.385 236.731 348.762 260.249 348.808Z" fill="#4E6A74"/>
<path d="M260.249 316.865L260.249 313.002C246.181 313.002 232.689 307.405 222.741 297.442C212.794 287.479 207.205 273.967 207.205 259.877L203.348 259.877C203.366 274.986 209.366 289.471 220.033 300.154C230.701 310.838 245.163 316.848 260.249 316.865V316.865Z" fill="#4E6A74"/>
<path d="M260.249 300.899L260.249 297.035C250.411 297.028 240.979 293.11 234.023 286.143C227.066 279.177 223.155 269.73 223.147 259.877V259.877L219.29 259.877C219.302 270.753 223.622 281.18 231.3 288.87C238.979 296.56 249.389 300.886 260.249 300.899V300.899Z" fill="#4E6A74"/>
<path d="M517.835 259.819L647 259.819L647 130.455L517.835 130.455L517.835 259.819Z" fill="#E08E59"/>
<path d="M542.843 259.8L538.985 259.8C538.965 254.189 536.73 248.814 532.767 244.847C528.805 240.881 523.437 238.645 517.835 238.627L517.835 234.763C524.46 234.781 530.809 237.424 535.495 242.116C540.181 246.807 542.822 253.164 542.843 259.8V259.8Z" fill="#4E6A74"/>
<path d="M618.694 259.8C618.664 233.019 608.028 207.343 589.12 188.406C570.212 169.468 544.575 158.816 517.835 158.785L517.835 154.922C545.602 154.955 572.222 166.018 591.855 185.683C611.488 205.348 622.531 232.01 622.562 259.819V259.819L618.704 259.819L618.694 259.8Z" fill="#4E6A74"/>
<path d="M634.636 259.8C634.6 228.786 622.283 199.052 600.386 177.121C578.49 155.191 548.802 142.855 517.835 142.819L517.835 138.955C549.828 138.994 580.5 151.74 603.122 174.398C625.743 197.057 638.468 227.777 638.503 259.819V259.819L634.646 259.819L634.636 259.8Z" fill="#4E6A74"/>
<path d="M590.678 259.8L586.82 259.8C586.8 241.486 579.528 223.928 566.599 210.978C553.67 198.027 536.14 190.741 517.855 190.718L517.855 186.855C537.162 186.883 555.67 194.577 569.321 208.251C582.972 221.925 590.652 240.463 590.678 259.8V259.8Z" fill="#4E6A74"/>
<path d="M606.62 259.8L602.762 259.8C602.737 237.26 593.788 215.65 577.879 199.707C561.97 183.764 540.398 174.79 517.893 174.752L517.893 170.888C541.42 170.932 563.97 180.315 580.601 196.981C597.233 213.647 606.589 236.237 606.62 259.8V259.8Z" fill="#4E6A74"/>
<path d="M574.736 259.8L570.878 259.8C570.866 245.714 565.273 232.209 555.328 222.249C545.384 212.289 531.899 206.688 517.835 206.675L517.835 202.811C532.921 202.829 547.383 208.839 558.051 219.523C568.718 230.206 574.718 244.691 574.736 259.8V259.8Z" fill="#4E6A74"/>
<path d="M558.765 259.8L554.908 259.8C554.895 249.954 550.984 240.515 544.032 233.553C537.081 226.59 527.656 222.673 517.826 222.661L517.826 218.797C528.678 218.815 539.081 223.141 546.755 230.826C554.428 238.512 558.747 248.931 558.765 259.8Z" fill="#4E6A74"/>
</g>
<defs>
<clipPath id="clip0_1816_14000">
<rect width="908" height="647" fill="white" transform="translate(647) rotate(90)"/>
</clipPath>
</defs>
</svg>
