<svg width="410" height="80" viewBox="0 0 410 80" fill="none" xmlns="http://www.w3.org/2000/svg">
<rect width="410" height="80" fill="white" fill-opacity="0.4"/>
<rect x="0.5" y="0.5" width="409" height="79" stroke="black"/>
<path d="M100.088 51.384C97.7413 51.384 95.6933 50.936 93.944 50.04C92.1947 49.144 90.8613 47.928 89.944 46.392C89.0267 44.8347 88.568 43.1067 88.568 41.208C88.568 39.16 89.0907 37.336 90.136 35.736C91.2027 34.1147 92.6533 32.8667 94.488 31.992C96.344 31.096 98.4133 30.648 100.696 30.648C101.699 30.648 102.712 30.7333 103.736 30.904C104.76 31.0533 105.581 31.256 106.2 31.512C106.392 31.576 106.509 31.6613 106.552 31.768C106.616 31.8533 106.659 32.0133 106.68 32.248L107.096 36.696C107.096 36.76 107.043 36.8027 106.936 36.824C106.829 36.8453 106.755 36.8133 106.712 36.728C105.965 35.0853 104.931 33.8053 103.608 32.888C102.307 31.9707 100.813 31.512 99.128 31.512C96.952 31.512 95.288 32.2693 94.136 33.784C93.0053 35.2987 92.44 37.368 92.44 39.992C92.44 42.104 92.8027 43.992 93.528 45.656C94.2533 47.2987 95.256 48.5787 96.536 49.496C97.8373 50.392 99.288 50.84 100.888 50.84C101.763 50.84 102.435 50.744 102.904 50.552C103.373 50.36 103.715 49.9867 103.928 49.432C104.141 48.8773 104.248 48.056 104.248 46.968C104.248 45.8587 104.184 45.0907 104.056 44.664C103.928 44.216 103.651 43.9173 103.224 43.768C102.819 43.6187 102.104 43.544 101.08 43.544C100.952 43.544 100.888 43.4587 100.888 43.288C100.888 43.224 100.899 43.1707 100.92 43.128C100.963 43.064 101.005 43.032 101.048 43.032C102.861 43.1387 104.323 43.192 105.432 43.192C106.52 43.192 107.651 43.16 108.824 43.096C108.867 43.096 108.899 43.128 108.92 43.192C108.963 43.2347 108.984 43.2773 108.984 43.32C108.984 43.4693 108.931 43.544 108.824 43.544C108.44 43.5227 108.173 43.5973 108.024 43.768C107.875 43.9173 107.779 44.2373 107.736 44.728C107.693 45.1973 107.672 46.0507 107.672 47.288C107.672 48.248 107.704 48.9307 107.768 49.336C107.853 49.7413 107.896 49.9973 107.896 50.104C107.896 50.232 107.864 50.3173 107.8 50.36C107.757 50.4027 107.661 50.4453 107.512 50.488C104.76 51.0853 102.285 51.384 100.088 51.384ZM122.416 48.888C122.459 48.888 122.501 48.9307 122.544 49.016C122.608 49.1013 122.619 49.1653 122.576 49.208C121.787 49.976 120.987 50.5307 120.176 50.872C119.365 51.2133 118.48 51.384 117.52 51.384C116.176 51.384 115.013 51.1067 114.032 50.552C113.051 49.976 112.304 49.2187 111.792 48.28C111.28 47.32 111.024 46.296 111.024 45.208C111.024 43.9707 111.344 42.8293 111.984 41.784C112.624 40.7173 113.499 39.8853 114.608 39.288C115.717 38.6693 116.955 38.36 118.32 38.36C119.643 38.36 120.656 38.648 121.36 39.224C122.064 39.7787 122.416 40.5467 122.416 41.528C122.416 42.1467 122.299 42.456 122.064 42.456H120.112L114.352 42.52C114.288 42.9253 114.256 43.3733 114.256 43.864C114.256 45.6987 114.683 47.1493 115.536 48.216C116.411 49.2827 117.605 49.816 119.12 49.816C119.653 49.816 120.208 49.7413 120.784 49.592C121.36 49.4427 121.883 49.2187 122.352 48.92L122.416 48.888ZM117.136 39C116.496 39 115.941 39.256 115.472 39.768C115.003 40.28 114.661 40.984 114.448 41.88L118.992 41.784C118.928 39.928 118.309 39 117.136 39ZM133.743 48.76C133.828 48.76 133.892 48.8027 133.935 48.888C133.999 48.9733 133.999 49.0373 133.935 49.08C133.146 49.8693 132.378 50.456 131.631 50.84C130.884 51.2027 130.095 51.384 129.263 51.384C128.324 51.384 127.524 51.16 126.863 50.712C126.202 50.264 125.871 49.5067 125.871 48.44V41.336C125.871 40.6747 125.754 40.216 125.519 39.96C125.284 39.704 124.858 39.576 124.239 39.576C124.218 39.576 124.186 39.544 124.143 39.48C124.122 39.416 124.111 39.352 124.111 39.288C124.111 39.2027 124.122 39.1387 124.143 39.096C124.164 39.032 124.196 39 124.239 39C125.327 38.9573 126.202 38.7227 126.863 38.296C127.546 37.8693 128.068 37.2187 128.431 36.344C128.474 36.2587 128.559 36.216 128.687 36.216C128.836 36.216 128.911 36.2587 128.911 36.344V38.904C130.148 38.8827 131.535 38.7867 133.071 38.616C133.114 38.616 133.156 38.7013 133.199 38.872C133.263 39.0213 133.295 39.192 133.295 39.384C133.295 39.5973 133.252 39.8107 133.167 40.024C133.103 40.216 133.028 40.3013 132.943 40.28C131.556 39.9813 130.212 39.8213 128.911 39.8V47.384C128.911 48.1947 129.114 48.792 129.519 49.176C129.946 49.56 130.5 49.752 131.183 49.752C132.036 49.752 132.868 49.432 133.679 48.792L133.743 48.76ZM147.193 34.232C147.193 35 147.385 35.6827 147.769 36.28C148.174 36.8773 148.665 37.4 149.241 37.848C149.817 38.296 150.596 38.84 151.577 39.48C152.644 40.1627 153.497 40.76 154.137 41.272C154.777 41.784 155.321 42.4133 155.769 43.16C156.217 43.8853 156.441 44.728 156.441 45.688C156.441 46.7973 156.142 47.7893 155.545 48.664C154.948 49.5173 154.116 50.1893 153.049 50.68C152.004 51.1493 150.83 51.384 149.529 51.384C148.569 51.384 147.566 51.256 146.521 51C145.476 50.7227 144.772 50.424 144.409 50.104C144.302 50.0187 144.217 49.944 144.153 49.88C144.11 49.7947 144.089 49.6667 144.089 49.496L143.993 44.408V44.376C143.993 44.2907 144.046 44.248 144.153 44.248C144.26 44.2267 144.324 44.2587 144.345 44.344C144.985 45.6453 145.54 46.7013 146.009 47.512C146.5 48.3227 147.108 49.0373 147.833 49.656C148.58 50.2747 149.422 50.584 150.361 50.584C151.214 50.584 151.918 50.36 152.473 49.912C153.028 49.4427 153.305 48.6533 153.305 47.544C153.305 46.6053 153.092 45.784 152.665 45.08C152.26 44.376 151.758 43.7787 151.161 43.288C150.564 42.7973 149.742 42.2107 148.697 41.528C147.673 40.8667 146.873 40.3013 146.297 39.832C145.742 39.3627 145.262 38.7973 144.857 38.136C144.452 37.4747 144.249 36.696 144.249 35.8C144.249 34.6693 144.569 33.72 145.209 32.952C145.87 32.1627 146.713 31.5867 147.737 31.224C148.761 30.84 149.838 30.648 150.969 30.648C151.716 30.648 152.473 30.7227 153.241 30.872C154.009 31 154.628 31.16 155.097 31.352C155.289 31.4373 155.417 31.5333 155.481 31.64C155.545 31.7253 155.577 31.8427 155.577 31.992V36.696C155.577 36.76 155.524 36.8133 155.417 36.856C155.31 36.8773 155.246 36.856 155.225 36.792L154.969 36.184C154.436 34.84 153.806 33.6987 153.081 32.76C152.377 31.8213 151.385 31.352 150.105 31.352C149.252 31.352 148.548 31.5973 147.993 32.088C147.46 32.5787 147.193 33.2933 147.193 34.232ZM168.462 48.76C168.547 48.76 168.611 48.8027 168.654 48.888C168.718 48.9733 168.718 49.0373 168.654 49.08C167.864 49.8693 167.096 50.456 166.35 50.84C165.603 51.2027 164.814 51.384 163.982 51.384C163.043 51.384 162.243 51.16 161.582 50.712C160.92 50.264 160.59 49.5067 160.59 48.44V41.336C160.59 40.6747 160.472 40.216 160.238 39.96C160.003 39.704 159.576 39.576 158.958 39.576C158.936 39.576 158.904 39.544 158.862 39.48C158.84 39.416 158.83 39.352 158.83 39.288C158.83 39.2027 158.84 39.1387 158.862 39.096C158.883 39.032 158.915 39 158.958 39C160.046 38.9573 160.92 38.7227 161.582 38.296C162.264 37.8693 162.787 37.2187 163.15 36.344C163.192 36.2587 163.278 36.216 163.406 36.216C163.555 36.216 163.63 36.2587 163.63 36.344V38.904C164.867 38.8827 166.254 38.7867 167.79 38.616C167.832 38.616 167.875 38.7013 167.918 38.872C167.982 39.0213 168.014 39.192 168.014 39.384C168.014 39.5973 167.971 39.8107 167.886 40.024C167.822 40.216 167.747 40.3013 167.662 40.28C166.275 39.9813 164.931 39.8213 163.63 39.8V47.384C163.63 48.1947 163.832 48.792 164.238 49.176C164.664 49.56 165.219 49.752 165.902 49.752C166.755 49.752 167.587 49.432 168.398 48.792L168.462 48.76ZM182.252 49.272C182.337 49.272 182.39 49.3253 182.412 49.432C182.454 49.5173 182.433 49.5813 182.348 49.624L179.052 51.192C178.966 51.2347 178.86 51.256 178.732 51.256C178.412 51.256 178.092 51.096 177.772 50.776C177.473 50.456 177.26 50.0187 177.132 49.464L175.66 50.264C175.105 50.5413 174.529 50.776 173.932 50.968C173.334 51.1387 172.801 51.224 172.332 51.224C171.649 51.224 171.105 51.0533 170.7 50.712C170.316 50.3493 170.124 49.8373 170.124 49.176C170.124 48.6853 170.241 48.2907 170.476 47.992C170.732 47.6933 171.084 47.448 171.532 47.256C172.001 47.0427 172.737 46.7653 173.74 46.424L177.004 45.368V42.84C177.004 41.56 176.876 40.6213 176.62 40.024C176.364 39.4053 175.948 39.096 175.372 39.096C174.86 39.096 174.454 39.288 174.156 39.672C173.857 40.056 173.676 40.6853 173.612 41.56C173.484 42.7547 172.854 43.352 171.724 43.352C170.721 43.352 170.22 42.9147 170.22 42.04C170.22 41.464 170.582 40.888 171.308 40.312C172.033 39.736 172.908 39.2667 173.932 38.904C174.956 38.5413 175.852 38.36 176.62 38.36C177.622 38.36 178.433 38.6587 179.052 39.256C179.692 39.8533 180.012 40.728 180.012 41.88V47.544C180.012 48.1627 180.118 48.6427 180.332 48.984C180.566 49.3253 180.886 49.496 181.292 49.496C181.59 49.496 181.9 49.4213 182.22 49.272H182.252ZM177.036 48.952C177.014 48.8027 177.004 48.5787 177.004 48.28V45.912L175.244 46.552C174.668 46.7653 174.252 47 173.996 47.256C173.761 47.512 173.644 47.8213 173.644 48.184C173.644 48.632 173.772 48.984 174.028 49.24C174.284 49.496 174.604 49.624 174.988 49.624C175.457 49.624 176.001 49.4747 176.62 49.176L177.036 48.952ZM191.881 38.328C192.371 38.328 192.841 38.5093 193.289 38.872C193.758 39.2133 193.993 39.6293 193.993 40.12C193.993 40.568 193.854 40.9413 193.577 41.24C193.299 41.5173 192.937 41.656 192.489 41.656C192.169 41.656 191.902 41.592 191.689 41.464C191.497 41.336 191.294 41.144 191.081 40.888C190.889 40.6747 190.718 40.5253 190.569 40.44C190.441 40.3333 190.281 40.28 190.089 40.28C189.875 40.28 189.641 40.3653 189.385 40.536C189.15 40.6853 188.777 41.016 188.265 41.528V48.408C188.265 49.2613 188.467 49.848 188.873 50.168C189.278 50.4667 190.025 50.616 191.113 50.616C191.198 50.616 191.241 50.68 191.241 50.808C191.241 50.936 191.198 51 191.113 51C190.366 51 189.779 50.9893 189.353 50.968L186.761 50.936L184.873 50.968C184.553 50.9893 184.115 51 183.561 51C183.497 51 183.465 50.936 183.465 50.808C183.465 50.68 183.497 50.616 183.561 50.616C184.222 50.616 184.67 50.4667 184.905 50.168C185.139 49.848 185.257 49.2613 185.257 48.408V42.392C185.257 41.7307 185.171 41.2507 185.001 40.952C184.851 40.632 184.606 40.472 184.265 40.472C183.902 40.472 183.39 40.6213 182.729 40.92H182.665C182.601 40.92 182.547 40.8667 182.505 40.76C182.483 40.6533 182.494 40.5893 182.537 40.568L186.985 38.392C187.113 38.3493 187.187 38.328 187.209 38.328C187.443 38.328 187.657 38.552 187.849 39C188.062 39.4267 188.19 40.0133 188.233 40.76C189.107 39.864 189.822 39.2347 190.377 38.872C190.953 38.5093 191.454 38.328 191.881 38.328ZM204.806 48.76C204.891 48.76 204.955 48.8027 204.998 48.888C205.062 48.9733 205.062 49.0373 204.998 49.08C204.208 49.8693 203.44 50.456 202.694 50.84C201.947 51.2027 201.158 51.384 200.326 51.384C199.387 51.384 198.587 51.16 197.926 50.712C197.264 50.264 196.934 49.5067 196.934 48.44V41.336C196.934 40.6747 196.816 40.216 196.582 39.96C196.347 39.704 195.92 39.576 195.302 39.576C195.28 39.576 195.248 39.544 195.206 39.48C195.184 39.416 195.174 39.352 195.174 39.288C195.174 39.2027 195.184 39.1387 195.206 39.096C195.227 39.032 195.259 39 195.302 39C196.39 38.9573 197.264 38.7227 197.926 38.296C198.608 37.8693 199.131 37.2187 199.494 36.344C199.536 36.2587 199.622 36.216 199.75 36.216C199.899 36.216 199.974 36.2587 199.974 36.344V38.904C201.211 38.8827 202.598 38.7867 204.134 38.616C204.176 38.616 204.219 38.7013 204.262 38.872C204.326 39.0213 204.358 39.192 204.358 39.384C204.358 39.5973 204.315 39.8107 204.23 40.024C204.166 40.216 204.091 40.3013 204.006 40.28C202.619 39.9813 201.275 39.8213 199.974 39.8V47.384C199.974 48.1947 200.176 48.792 200.582 49.176C201.008 49.56 201.563 49.752 202.246 49.752C203.099 49.752 203.931 49.432 204.742 48.792L204.806 48.76ZM217.604 48.888C217.646 48.888 217.689 48.9307 217.732 49.016C217.796 49.1013 217.806 49.1653 217.764 49.208C216.974 49.976 216.174 50.5307 215.364 50.872C214.553 51.2133 213.668 51.384 212.708 51.384C211.364 51.384 210.201 51.1067 209.22 50.552C208.238 49.976 207.492 49.2187 206.98 48.28C206.468 47.32 206.212 46.296 206.212 45.208C206.212 43.9707 206.532 42.8293 207.172 41.784C207.812 40.7173 208.686 39.8853 209.796 39.288C210.905 38.6693 212.142 38.36 213.508 38.36C214.83 38.36 215.844 38.648 216.548 39.224C217.252 39.7787 217.604 40.5467 217.604 41.528C217.604 42.1467 217.486 42.456 217.252 42.456H215.3L209.54 42.52C209.476 42.9253 209.444 43.3733 209.444 43.864C209.444 45.6987 209.87 47.1493 210.724 48.216C211.598 49.2827 212.793 49.816 214.308 49.816C214.841 49.816 215.396 49.7413 215.972 49.592C216.548 49.4427 217.07 49.2187 217.54 48.92L217.604 48.888ZM212.324 39C211.684 39 211.129 39.256 210.66 39.768C210.19 40.28 209.849 40.984 209.636 41.88L214.18 41.784C214.116 39.928 213.497 39 212.324 39ZM234.471 48.92C234.535 48.92 234.588 48.9733 234.631 49.08C234.695 49.1867 234.706 49.2507 234.663 49.272L230.247 51.416L230.087 51.448C229.895 51.448 229.714 51.2453 229.543 50.84C229.394 50.4347 229.298 49.88 229.255 49.176C227.676 50.6693 226.066 51.416 224.423 51.416C223.484 51.416 222.631 51.1707 221.863 50.68C221.116 50.1893 220.519 49.4747 220.071 48.536C219.623 47.576 219.399 46.456 219.399 45.176C219.399 43.5547 219.772 42.232 220.519 41.208C221.287 40.1627 222.226 39.4053 223.335 38.936C224.466 38.4667 225.596 38.232 226.727 38.232C227.516 38.232 228.348 38.36 229.223 38.616V32.152C229.223 31.4053 229.148 30.872 228.999 30.552C228.871 30.232 228.636 30.072 228.295 30.072C228.018 30.072 227.623 30.1893 227.111 30.424H227.079C226.994 30.424 226.919 30.3707 226.855 30.264C226.812 30.136 226.812 30.0613 226.855 30.04L231.559 27.832L231.687 27.8C231.794 27.8 231.911 27.8533 232.039 27.96C232.167 28.0453 232.231 28.1307 232.231 28.216V47.288C232.231 48.0133 232.295 48.5253 232.423 48.824C232.572 49.1227 232.807 49.272 233.127 49.272C233.404 49.272 233.842 49.1547 234.439 48.92H234.471ZM226.183 49.88C227.25 49.88 228.263 49.432 229.223 48.536V48.376V40.6C228.839 40.0667 228.402 39.6827 227.911 39.448C227.442 39.192 226.887 39.064 226.247 39.064C225.095 39.064 224.21 39.4693 223.591 40.28C222.994 41.0693 222.695 42.36 222.695 44.152C222.695 45.944 223.015 47.352 223.655 48.376C224.295 49.3787 225.138 49.88 226.183 49.88Z" fill="black"/>
<path d="M323 40L303 28.453V51.547L323 40ZM253 42H305V38H253V42Z" fill="#FFFF15"/>
</svg>
