<svg width="166" height="60" viewBox="0 0 166 60" fill="none" xmlns="http://www.w3.org/2000/svg">
<path d="M22.5 26.5816V20.9211H41.4474C41.6408 21.9198 41.7553 23.104 41.7553 24.3909C41.7553 28.6343 40.5948 33.8882 36.8526 37.6303C33.2132 41.4198 28.5671 43.4409 22.4013 43.4409C10.9816 43.4409 1.38159 34.1448 1.38159 22.7251C1.38159 11.3053 10.9816 2.00928 22.4013 2.00928C28.7171 2.00928 33.2132 4.48428 36.6 7.71717L32.6092 11.708C30.1855 9.43428 26.9013 7.66586 22.4013 7.66586C14.0645 7.66586 7.54738 14.3843 7.54738 22.7251C7.54738 31.0659 14.0645 37.7843 22.4013 37.7843C27.8092 37.7843 30.8882 35.6132 32.8619 33.6396C34.4684 32.033 35.5263 29.7317 35.9369 26.5816H22.5Z" fill="#4285F4"/>
<path d="M70.6264 30.0987C70.6264 37.7802 64.6145 43.4368 57.2369 43.4368C49.8593 43.4368 43.8474 37.7763 43.8474 30.0987C43.8474 22.3697 49.8593 16.7605 57.2369 16.7605C64.6145 16.7605 70.6264 22.3697 70.6264 30.0987ZM64.7645 30.0987C64.7645 25.2987 61.279 22.0144 57.2369 22.0144C53.1948 22.0144 49.7093 25.2987 49.7093 30.0987C49.7093 34.8473 53.1948 38.1829 57.2369 38.1829C61.279 38.1868 64.7645 34.8513 64.7645 30.0987Z" fill="#EA4335"/>
<path d="M99.4422 30.0987C99.4422 37.7802 93.4303 43.4368 86.0527 43.4368C78.675 43.4368 72.6632 37.7763 72.6632 30.0987C72.6632 22.3697 78.675 16.7605 86.0527 16.7605C93.4303 16.7605 99.4422 22.3697 99.4422 30.0987ZM93.5803 30.0987C93.5803 25.2987 90.0948 22.0144 86.0527 22.0144C82.0106 22.0144 78.525 25.2987 78.525 30.0987C78.525 34.8473 82.0106 38.1829 86.0527 38.1829C90.0948 38.1868 93.5803 34.8513 93.5803 30.0987Z" fill="#FBBC05"/>
<path d="M127.105 17.5619V41.5184C127.105 51.3711 121.295 55.4132 114.422 55.4132C107.957 55.4132 104.064 51.0671 102.6 47.5303L107.704 45.4066C108.612 47.5776 110.838 50.1553 114.422 50.1553C118.82 50.1553 121.547 47.4277 121.547 42.3237V40.4053H121.346C120.032 42.0237 117.505 43.4369 114.324 43.4369C107.653 43.4369 101.538 37.6263 101.538 30.1461C101.538 22.6184 107.653 16.7566 114.324 16.7566C117.505 16.7566 120.032 18.1697 121.346 19.7369H121.547V17.5579H127.105V17.5619ZM121.95 30.15C121.95 25.4487 118.816 22.0145 114.825 22.0145C110.783 22.0145 107.396 25.4487 107.396 30.15C107.396 34.8 110.783 38.1829 114.825 38.1829C118.82 38.1869 121.95 34.8 121.95 30.15Z" fill="#4285F4"/>
<path d="M136.974 3.55261V42.6316H131.112V3.55261H136.974Z" fill="#34A853"/>
<path d="M159.213 34.496L163.761 37.5276C162.296 39.6986 158.759 43.4407 152.645 43.4407C145.066 43.4407 139.405 37.5789 139.405 30.1026C139.405 22.1684 145.113 16.7644 151.986 16.7644C158.909 16.7644 162.292 22.271 163.405 25.2512L164.013 26.767L146.175 34.1447C147.541 36.821 149.661 38.1868 152.641 38.1868C155.625 38.1868 157.697 36.7184 159.213 34.496ZM145.216 29.696L157.141 24.746C156.486 23.0802 154.512 21.9157 152.191 21.9157C149.207 21.9157 145.066 24.5407 145.216 29.696Z" fill="#EA4335"/>
</svg>
