<svg width="292" height="60" viewBox="0 0 292 60" fill="none" xmlns="http://www.w3.org/2000/svg">
<g clip-path="url(#clip0_1701_13548)">
<path d="M29.7482 0.000770569H12.3991V1.4817H17.9267V30.271C17.9267 38.9123 15.5313 41.3484 10.1851 41.3484C6.81599 41.3484 6.26805 38.7975 6.26805 37.4647C6.26805 34.3251 6.08664 32.3925 3.21733 32.3925C0.340614 32.3925 0 35.3025 0 36.2022C0 40.1637 3.06553 43.1996 10.9478 43.1996C20.3258 43.1996 24.0429 40.0267 24.0429 29.4973V1.4669L29.7482 1.4817V0.000770569Z" fill="#4D2B1A"/>
<path d="M30.916 36.5107C29.9571 36.5107 29.1537 36.8217 28.5095 37.4881C27.8357 38.1471 27.5024 38.9357 27.5024 39.9057C27.5024 40.8572 27.8357 41.631 28.5095 42.2678C29.1833 42.9416 29.9867 43.2489 30.916 43.2489C31.8749 43.2489 32.6746 42.9416 33.3632 42.2678C34.0185 41.631 34.3481 40.8572 34.3481 39.9057C34.3481 38.9357 34.0185 38.1434 33.3632 37.4881C32.6894 36.8217 31.9045 36.5107 30.916 36.5107Z" fill="#4D2B1A"/>
<path d="M68.0948 36.5107C67.1396 36.5107 66.3362 36.8217 65.6809 37.4881C65.0144 38.1471 64.696 38.9357 64.696 39.9057C64.696 40.8572 65.0144 41.631 65.6809 42.2678C66.3732 42.9416 67.1544 43.2489 68.0948 43.2489C69.05 43.2489 69.8645 42.9416 70.5457 42.2678C71.2196 41.631 71.538 40.8572 71.538 39.9057C71.538 38.9357 71.2196 38.1434 70.5457 37.4881C69.8719 36.8217 69.0574 36.5107 68.0948 36.5107Z" fill="#4D2B1A"/>
<path d="M57.3131 0.000968933H40.3231V1.4819H45.3101V34.3216C45.3101 36.8984 45.162 37.0095 44.8769 37.7685C44.5585 38.6052 43.8662 39.2605 42.8296 39.6863C42.0632 40.0121 40.9006 40.1861 39.3494 40.2342V42.1261H57.6315V40.2342C56.0802 40.1861 54.8992 40.0121 54.1217 39.7381C53.0332 39.3012 52.326 38.6792 51.9854 37.8129C51.6818 37.0835 51.5152 36.4282 51.5152 35.1287V24.4364L56.0469 24.4104C69.1828 24.4104 72.874 19.2346 72.874 12.1631C72.874 5.01022 70.6156 0.000968933 57.3131 0.000968933ZM54.9954 22.8073H51.5152V1.66702L54.6659 1.62629C64.7955 1.62629 67.0169 5.79142 67.0169 12.5519C67.0169 19.342 63.0258 22.8073 54.9954 22.8073Z" fill="#4D2B1A"/>
<path d="M125.141 37.6601C124.904 36.8974 124.786 35.9755 124.786 34.7908V1.48463H129.184V-7.62939e-06H118.466C118.314 0.388737 105.53 32.1918 105.53 32.1918C105.471 32.3102 105.356 32.3806 105.241 32.3806C105.097 32.3806 104.989 32.3102 104.93 32.1918C104.93 32.1918 91.3351 0.388737 91.1759 -7.62939e-06H79.2581V1.48833H84.197V33.495C84.197 33.495 84.0822 36.4717 84.0822 36.4754C84.0045 37.2603 83.7564 37.9563 83.3751 38.5191C82.9678 39.1225 82.3199 39.5853 81.4647 39.8889C80.8945 40.0629 80.0541 40.1962 79.0063 40.211V42.1251H91.1241V40.2332C90.1134 40.1962 89.6876 40.0888 89.0878 39.8889C88.2178 39.6038 87.5624 39.1707 87.133 38.5376C86.7442 37.9859 86.4962 37.2788 86.411 36.4754C86.411 36.4754 86.274 33.5098 86.274 33.495V5.8941H86.9738C86.9738 5.8941 102.327 41.7327 102.487 42.1251H103.775L118.299 6.29766H118.677V34.7908C118.677 36.0385 118.54 36.99 118.299 37.7342C118.01 38.6042 117.388 39.2632 116.492 39.7149C115.826 40.0074 114.808 40.1851 113.471 40.2332V42.1251H130.043V40.2332C128.721 40.1629 127.692 39.9852 127 39.6742C126.037 39.1966 125.408 38.5339 125.141 37.6601Z" fill="#4D2B1A"/>
<path d="M147.435 11.2665C138.582 11.2665 133.036 17.131 133.036 27.3828C133.036 42.3587 144.724 43.3732 147.231 43.3732C152.222 43.3732 161.681 40.2521 161.681 27.0903C161.681 16.8423 155.628 11.2665 147.435 11.2665ZM147.32 41.5072C140.667 41.5072 139.641 38.1862 139.641 27.542C139.641 19.3154 140.152 13.1362 147.32 13.1362C155.058 13.1362 155.084 19.5227 155.084 27.0274C155.084 37.7938 153.247 41.5072 147.32 41.5072Z" fill="#4D2B1A"/>
<path d="M184.812 11.7293C179.518 11.7293 177.696 14.8504 176.245 18.0381C176.245 18.0381 175.86 17.9974 175.83 18.0233C175.786 18.0381 174.768 11.9811 174.768 11.9811H164.731V13.5731H170.255V19.9781V34.321C170.255 36.3684 170.155 37.9863 169.618 38.8415C169.003 39.8411 167.741 40.2336 165.634 40.2336H164.731V42.1255H181.899V40.2336H180.966C178.718 40.2336 177.559 39.7375 176.96 38.7675C176.415 37.9011 176.178 36.4424 176.178 34.321V23.5768C176.178 19.9337 179.092 15.7871 182.384 15.7871C185.823 15.7871 185.934 20.726 189.629 18.9489C192.261 17.6864 191.676 11.7293 184.812 11.7293Z" fill="#4D2B1A"/>
<path d="M253.15 39.0558C251.321 39.0558 250.729 38.0339 250.606 36.3198L250.492 32.4841V19.8481C250.492 17.1306 250.044 15.3053 248.448 13.6948C246.874 12.0954 243.809 11.2661 239.396 11.2661C235.138 11.2661 231.984 12.0547 229.984 13.5948C228.015 15.0795 227.271 16.4641 227.271 18.4301C227.271 19.3483 227.504 19.9999 228.015 20.4293C228.544 20.8847 229.144 21.0958 229.892 21.0958C231.595 21.0958 232.539 20.2368 232.894 17.9969C233.168 16.3198 233.528 15.3757 234.364 14.5093C235.223 13.5948 236.593 13.1358 238.444 13.1358C240.599 13.1358 242.124 13.7096 242.969 14.8721C243.765 15.9606 244.164 17.4379 244.164 19.2668V24.3168C238.674 24.8166 225.693 25.8533 226.271 35.7459C226.504 39.6111 229.903 42.9988 234.305 42.9988C239.181 42.9988 242.254 40.2331 244.357 38.0228C244.69 40.1073 246.638 42.6322 250.192 42.6322C254.194 42.6322 256.582 40.6774 256.849 35.7792H255.816C255.553 37.9007 254.246 39.0558 253.15 39.0558ZM244.164 35.8644C244.164 35.9755 244.153 36.0421 244.057 36.1124L243.946 36.2235C240.999 38.8855 238.748 39.8407 237.111 39.8407C232.894 39.8407 232.272 36.3272 232.272 34.5908C232.272 28.9669 239.959 26.1754 244.164 26.1754V35.8644Z" fill="#4D2B1A"/>
<path d="M288.217 38.868C288.947 39.801 290.02 40.1083 291.834 40.2342V42.1261H277.547V40.249C278.591 40.1639 279.406 39.9417 279.928 39.5826C280.627 39.105 280.835 38.3719 281.013 37.4649C281.135 36.6689 281.187 35.5063 281.187 33.8551V24.0032C281.187 21.6115 281.02 18.6015 280.202 16.9799C279.491 15.5359 278.269 14.8288 276.018 14.8288C273.504 14.8288 271.264 16.021 270.031 18.1905C268.917 20.175 268.924 23.3812 268.924 26.7133V34.6733C268.924 36.7207 269.187 38.1239 269.769 38.9384C270.294 39.7011 271.305 40.1083 272.804 40.2157V42.1261H257.973V40.2342C259.124 40.1824 259.987 40.0491 260.55 39.801C261.446 39.4271 262.038 38.7977 262.282 37.8758C262.512 37.1094 262.649 35.9469 262.649 34.3401V13.5663L257.973 13.5552V11.9965L267.325 11.9817L268.384 17.4501L268.854 17.4389C270.046 15.0954 272.664 11.6263 278.687 11.6263C280.368 11.6263 281.897 11.9521 283.215 12.6222C284.526 13.2923 285.574 14.3105 286.333 15.6655C287.073 17.0465 287.31 18.7385 287.31 20.7044V34.366C287.31 35.9062 287.477 37.9202 288.217 38.868Z" fill="#4D2B1A"/>
<path d="M221.199 10.0519C220.311 10.3333 219.733 11.1293 219.4 12.4511C219.185 13.6765 218.708 14.3874 218.097 14.5836C217.478 14.765 216.423 14.7798 215.964 14.4281C214.42 13.0027 211.473 11.2663 206.282 11.2663C197.926 11.2663 194.243 17.2234 194.243 22.6436C194.243 29.0005 196.69 32.0882 202.062 33.2211C202.395 33.2767 202.395 33.6506 202.103 33.7173C197.53 34.6317 193.461 35.9757 193.461 40.3333C193.461 42.9546 194.968 44.3874 196.897 45.1797C199.037 46.0497 202.003 46.4977 205.779 46.5755C209.059 46.6051 211.381 46.7199 212.913 46.8939C214.542 47.0827 215.831 47.5566 216.801 48.2563C217.8 49.0042 218.319 50.1334 218.319 51.618C218.319 53.6321 217.227 55.2426 215.087 56.4459C213.084 57.5529 210.355 58.1527 206.945 58.1527C204.046 58.1527 201.662 57.8417 199.5 56.494C197.904 55.4944 197.593 53.5692 197.926 52.1623C198.237 50.748 197.73 49.2597 196.079 48.9783C195.175 48.8302 194.046 49.3078 193.509 50.1334C193.021 50.8961 192.854 51.8032 192.854 52.8879C192.854 56.4681 195.623 58.1527 197.734 58.7672C200.955 59.7447 203.098 60.0001 206.068 60.0001C209.985 60.0001 213.195 59.3855 215.468 58.2304C217.756 57.0827 219.359 55.661 220.203 54.0394C221.099 52.4066 221.529 50.7369 221.529 49.1375C221.529 46.9679 221.044 45.2093 220.133 43.8987C217.149 39.8002 212.913 40.3333 203.387 39.889C198.793 39.889 197.904 39.056 197.904 37.6491C197.904 35.5647 199.615 34.7576 206.238 33.7395C212.776 32.7287 218.863 30.3259 218.863 22.3548C218.863 20.0631 218.326 18.0897 217.686 16.7087C219.041 17.0049 220.274 17.0049 221.436 16.6347C222.758 16.22 223.613 15.5647 224.106 14.6354C224.605 13.7061 224.794 12.6436 224.576 11.7661C224.176 9.92977 222.802 9.55213 221.199 10.0519ZM206.442 32.0068C202.543 32.0068 200.303 30.5925 200.303 22.6436C200.303 17.0494 202.254 12.8879 206.442 12.8879C211.303 12.8879 212.732 16.6754 212.732 22.5288C212.732 30.9035 210.085 32.0068 206.442 32.0068Z" fill="#4D2B1A"/>
</g>
<defs>
<clipPath id="clip0_1701_13548">
<rect width="291.835" height="60" fill="white"/>
</clipPath>
</defs>
</svg>
