<svg width="248" height="60" viewBox="0 0 248 60" fill="none" xmlns="http://www.w3.org/2000/svg">
<g clip-path="url(#clip0_1816_13995)">
<path d="M243.854 51.8659C242.771 51.8763 241.737 52.3113 240.977 53.076C240.216 53.8406 239.793 54.8727 239.798 55.9463C239.803 57.02 240.237 58.0479 241.004 58.8053C241.772 59.5627 242.811 59.9879 243.893 59.9879C244.976 59.9879 246.015 59.5627 246.783 58.8053C247.55 58.0479 247.984 57.02 247.989 55.9463C247.994 54.8727 247.571 53.8406 246.81 53.076C246.05 52.3113 245.016 51.8763 243.933 51.8659H243.854ZM243.854 59.5229C243.144 59.5346 242.446 59.3373 241.849 58.9558C241.252 58.5743 240.782 58.0258 240.5 57.3797C240.217 56.7336 240.134 56.0189 240.261 55.3259C240.388 54.633 240.719 53.9929 241.213 53.4867C241.707 52.9804 242.341 52.6308 243.035 52.4819C243.729 52.333 244.453 52.3916 245.113 52.6502C245.774 52.9089 246.342 53.356 246.747 53.935C247.151 54.514 247.373 55.1989 247.385 55.9031V55.9628C247.405 56.8866 247.054 57.7804 246.41 58.4477C245.765 59.115 244.879 59.5011 243.948 59.5211H243.855M228.132 50.7564H219.233V36.9371C219.233 33.6417 219.173 29.3996 214.604 29.3996C209.969 29.3996 209.259 32.99 209.259 36.6972V50.7555H200.36V22.3373H208.903V26.221H209.023C209.878 24.7714 211.113 23.579 212.598 22.7706C214.082 21.9622 215.76 21.5682 217.453 21.6305C226.473 21.6305 228.136 27.5134 228.136 35.1667L228.132 50.7564ZM190.318 18.4528C189.296 18.453 188.298 18.1528 187.448 17.5903C186.599 17.0277 185.937 16.2281 185.546 15.2924C185.155 14.3568 185.052 13.3271 185.251 12.3337C185.45 11.3404 185.942 10.4278 186.664 9.71151C187.386 8.99521 188.307 8.50733 189.308 8.30956C190.31 8.11179 191.349 8.21302 192.292 8.60044C193.236 8.98786 194.043 9.64408 194.611 10.4861C195.178 11.3281 195.481 12.3181 195.482 13.331C195.482 14.0035 195.348 14.6694 195.089 15.2907C194.829 15.9121 194.449 16.4767 193.969 16.9523C193.49 17.4279 192.921 17.8052 192.294 18.0626C191.668 18.3201 190.996 18.4527 190.318 18.4528ZM194.768 50.7564H185.859V22.3373H194.768V50.7564ZM232.569 0.0162631H181.387C180.225 0.00326425 179.106 0.448101 178.274 1.25302C177.443 2.05795 176.969 3.1571 176.954 4.30896V55.2688C176.968 56.4213 177.443 57.5212 178.274 58.3269C179.105 59.1327 180.224 59.5784 181.387 59.5661H232.569C233.734 59.5806 234.856 59.1362 235.691 58.3304C236.525 57.5247 237.003 56.4235 237.019 55.2688V4.30528C237.002 3.15114 236.524 2.05074 235.69 1.24583C234.856 0.440932 233.733 -0.00263546 232.569 0.0125862M152.732 29.1965C148.282 29.1965 145.612 32.1425 145.612 36.4352C145.612 40.7279 148.281 43.6767 152.732 43.6767C157.182 43.6767 159.858 40.7353 159.858 36.4352C159.858 32.1352 157.187 29.1965 152.732 29.1965ZM168.051 50.7399H159.858V46.9712H159.736C158.708 48.342 157.375 49.459 155.841 50.2351C154.306 51.0113 152.611 51.4256 150.889 51.4459C142.337 51.4459 136.705 45.3267 136.705 36.6733C136.705 28.7258 141.689 21.4283 149.884 21.4283C153.567 21.4283 157.007 22.4274 159.025 25.197H159.142V8.81582H168.05L168.051 50.7399ZM125.278 33.2309C125.295 32.5149 125.165 31.803 124.897 31.1383C124.628 30.4736 124.226 29.8698 123.715 29.3636C123.204 28.8574 122.595 28.4593 121.925 28.1934C121.254 27.9275 120.536 27.7994 119.814 27.8167C118.259 27.7208 116.728 28.2346 115.552 29.2474C114.375 30.2602 113.647 31.6908 113.525 33.2309H125.278ZM132.817 45.824C131.338 47.6022 129.479 49.032 127.374 50.0099C125.269 50.9878 122.971 51.4893 120.646 51.478C111.747 51.478 104.621 45.5878 104.621 36.4665C104.621 27.3452 111.746 21.4577 120.646 21.4577C128.965 21.4577 134.181 27.3406 134.181 36.4665V39.2333H113.525C113.782 40.8024 114.602 42.2266 115.835 43.2433C117.067 44.26 118.629 44.8008 120.232 44.766C121.499 44.7582 122.743 44.4364 123.853 43.8299C124.962 43.2233 125.901 42.3513 126.583 41.2932L132.817 45.824ZM44.3445 22.33H52.891V26.2136H53.0124C53.8661 24.7635 55.1009 23.5705 56.5851 22.762C58.0693 21.9535 59.7471 21.5598 61.4393 21.6231C70.4642 21.6231 72.1254 27.5106 72.1254 35.1594V50.7436H63.2257V36.927C63.2257 33.6289 63.1646 29.3895 58.5905 29.3895C53.9645 29.3895 53.2507 32.9808 53.2507 36.6871V50.7399H44.351L44.3445 22.33ZM76.6383 8.81858H85.538V33.8807L95.6243 22.3144H106.536L94.8549 35.471L106.29 50.7574H95.1042L85.6567 36.7101H85.5399V50.7555H76.6402L76.6383 8.81858ZM30.5101 22.3272H39.4098V50.7454H30.5101V22.3272ZM34.96 8.19904C35.981 8.19922 36.9791 8.4996 37.828 9.0622C38.6769 9.6248 39.3385 10.4244 39.7291 11.3598C40.1197 12.2952 40.2218 13.3244 40.0225 14.3173C39.8232 15.3103 39.3314 16.2223 38.6093 16.9381C37.8873 17.654 36.9674 18.1414 35.9659 18.3389C34.9645 18.5363 33.9265 18.4349 32.9832 18.0474C32.0398 17.6599 31.2336 17.0038 30.6663 16.162C30.0991 15.3202 29.7963 14.3305 29.7963 13.3181C29.7963 12.6458 29.9299 11.98 30.1894 11.3589C30.4489 10.7378 30.8293 10.1734 31.3088 9.69805C31.7883 9.22269 32.3575 8.84564 32.984 8.58844C33.6105 8.33124 34.2819 8.19892 34.96 8.19904ZM0 8.82502H9.26401V42.2841H26.4144V50.761H0V8.82502ZM244.504 56.1844C244.656 56.1859 244.807 56.1563 244.948 56.0975C245.088 56.0387 245.215 55.9519 245.32 55.8426C245.425 55.7332 245.507 55.6035 245.559 55.4617C245.612 55.3198 245.634 55.1688 245.626 55.0179C245.626 54.1906 245.122 53.7953 244.09 53.7953H242.421V58.1266H243.048V56.2386H243.82L243.837 56.2616L245.034 58.1266H245.705L244.418 56.1963L244.504 56.1844ZM243.778 55.7505H243.05V54.2862H243.973C244.449 54.2862 244.992 54.3634 244.992 54.982C244.992 55.6935 244.443 55.7505 243.774 55.7505" fill="#0A66C2"/>
</g>
<defs>
<clipPath id="clip0_1816_13995">
<rect width="248" height="60" fill="white"/>
</clipPath>
</defs>
</svg>
