<svg width="282" height="60" viewBox="0 0 282 60" fill="none" xmlns="http://www.w3.org/2000/svg">
<g clip-path="url(#clip0_1699_13434)">
<path d="M281.043 27.1429V22.2003H274.905V14.5163L274.698 14.5798L268.933 16.3436L268.82 16.3782V22.2003H259.721V18.9572C259.721 17.447 260.059 16.2912 260.724 15.5205C261.385 14.7589 262.33 14.3718 263.536 14.3718C264.403 14.3718 265.3 14.5761 266.203 14.9788L266.43 15.0797V9.87447L266.323 9.83538C265.481 9.53259 264.334 9.38 262.914 9.38C261.124 9.38 259.497 9.76946 258.079 10.5416C256.659 11.3147 255.543 12.4185 254.761 13.822C253.981 15.2238 253.585 16.8428 253.585 18.6344V22.2003H249.312V27.1429H253.585V47.9649H259.721V27.1429H268.82V40.375C268.82 45.8246 271.39 48.5865 276.46 48.5865C277.293 48.5865 278.169 48.4886 279.065 48.2973C279.976 48.1012 280.597 47.9051 280.962 47.6958L281.043 47.6482V42.6597L280.793 42.8249C280.46 43.0472 280.046 43.2283 279.559 43.3629C279.071 43.5002 278.663 43.5691 278.348 43.5691C277.16 43.5691 276.281 43.249 275.736 42.6176C275.185 41.9804 274.905 40.8658 274.905 39.3069V27.1429H281.043ZM235.61 43.5696C233.383 43.5696 231.628 42.8312 230.391 41.3767C229.146 39.9147 228.515 37.8305 228.515 35.1825C228.515 32.4505 229.146 30.3123 230.391 28.8245C231.629 27.3466 233.368 26.5965 235.56 26.5965C237.688 26.5965 239.381 27.3129 240.594 28.727C241.813 30.1482 242.432 32.2694 242.432 35.0333C242.432 37.8312 241.85 39.9803 240.703 41.4178C239.564 42.8448 237.851 43.5696 235.61 43.5696ZM235.884 21.5796C231.635 21.5796 228.26 22.8244 225.855 25.2797C223.45 27.7353 222.231 31.1333 222.231 35.3806C222.231 39.4145 223.421 42.6592 225.768 45.0231C228.116 47.388 231.31 48.5859 235.262 48.5859C239.381 48.5859 242.688 47.3238 245.093 44.8345C247.497 42.3476 248.716 38.9818 248.716 34.8338C248.716 30.7368 247.573 27.4679 245.317 25.1196C243.06 22.7703 239.886 21.5796 235.884 21.5796ZM212.339 21.5794C209.449 21.5794 207.059 22.3186 205.232 23.7761C203.395 25.2422 202.463 27.1653 202.463 29.4921C202.463 30.7016 202.665 31.7762 203.06 32.6873C203.459 33.6018 204.075 34.4065 204.894 35.0821C205.707 35.7523 206.961 36.4544 208.623 37.1683C210.02 37.7434 211.063 38.23 211.725 38.6133C212.372 38.9888 212.831 39.3667 213.09 39.7344C213.342 40.0943 213.47 40.5868 213.47 41.1951C213.47 42.9258 212.174 43.768 209.507 43.768C208.518 43.768 207.389 43.5617 206.153 43.1542C204.916 42.7474 203.76 42.1626 202.718 41.4126L202.463 41.2301V47.1367L202.557 47.1802C203.425 47.5809 204.519 47.9187 205.809 48.1848C207.097 48.4509 208.267 48.5865 209.283 48.5865C212.419 48.5865 214.944 47.8436 216.787 46.3775C218.642 44.9013 219.582 42.933 219.582 40.5252C219.582 38.7887 219.076 37.2992 218.078 36.0982C217.088 34.9067 215.369 33.8132 212.971 32.8463C211.061 32.0797 209.837 31.4431 209.332 30.9548C208.846 30.4828 208.599 29.8153 208.599 28.9702C208.599 28.2208 208.904 27.6207 209.53 27.1344C210.161 26.6457 211.039 26.3973 212.141 26.3973C213.163 26.3973 214.209 26.5587 215.249 26.8751C216.289 27.1915 217.201 27.6152 217.964 28.1338L218.214 28.3051V22.7019L218.118 22.6604C217.415 22.359 216.488 22.1011 215.362 21.8917C214.24 21.6844 213.223 21.5794 212.339 21.5794ZM186.469 43.5696C184.242 43.5696 182.486 42.8312 181.249 41.3767C180.004 39.9147 179.374 37.8312 179.374 35.1825C179.374 32.4505 180.005 30.3123 181.25 28.8245C182.487 27.3466 184.226 26.5965 186.419 26.5965C188.546 26.5965 190.239 27.3129 191.453 28.727C192.672 30.1482 193.29 32.2694 193.29 35.0333C193.29 37.8312 192.708 39.9803 191.561 41.4178C190.422 42.8448 188.71 43.5696 186.469 43.5696ZM186.743 21.5796C182.493 21.5796 179.118 22.8244 176.714 25.2797C174.309 27.7353 173.089 31.1333 173.089 35.3806C173.089 39.4162 174.28 42.6592 176.627 45.0231C178.975 47.388 182.169 48.5859 186.121 48.5859C190.238 48.5859 193.547 47.3238 195.952 44.8345C198.356 42.3476 199.575 38.9818 199.575 34.8338C199.575 30.7368 198.431 27.4679 196.175 25.1196C193.917 22.7703 190.744 21.5796 186.743 21.5796ZM163.776 26.662V22.2003H157.715V47.9642H163.776V34.7851C163.776 32.5439 164.284 30.703 165.287 29.3124C166.276 27.9384 167.596 27.2421 169.206 27.2421C169.752 27.2421 170.365 27.3322 171.028 27.5102C171.685 27.6873 172.161 27.8793 172.442 28.0815L172.696 28.266V22.1561L172.598 22.114C172.034 21.8741 171.235 21.7531 170.225 21.7531C168.702 21.7531 167.339 22.2424 166.172 23.2059C165.147 24.0527 164.406 25.214 163.84 26.662H163.776ZM146.862 21.5794C144.082 21.5794 141.602 22.1758 139.492 23.351C137.378 24.5288 135.744 26.2107 134.631 28.3493C133.524 30.4828 132.962 32.9748 132.962 35.7536C132.962 38.1879 133.507 40.4219 134.585 42.3906C135.663 44.3627 137.188 45.9055 139.12 46.9757C141.048 48.0444 143.277 48.5865 145.745 48.5865C148.625 48.5865 151.084 48.0105 153.056 46.8751L153.136 46.8292V41.277L152.881 41.4628C151.988 42.1133 150.99 42.6326 149.916 43.0067C148.845 43.3805 147.868 43.5695 147.012 43.5695C144.634 43.5695 142.725 42.8252 141.339 41.3585C139.95 39.8894 139.246 37.827 139.246 35.2313C139.246 32.6193 139.98 30.5038 141.428 28.9426C142.87 27.3862 144.783 26.5967 147.112 26.5967C149.104 26.5967 151.045 27.2713 152.882 28.6035L153.136 28.788V22.9377L153.054 22.8915C152.362 22.5048 151.42 22.1853 150.25 21.943C149.085 21.7014 147.945 21.5794 146.862 21.5794ZM128.788 22.2004H122.728V47.9643H128.788V22.2004ZM125.82 11.2247C124.822 11.2247 123.952 11.5642 123.238 12.2371C122.52 12.912 122.156 13.7616 122.156 14.7641C122.156 15.751 122.515 16.5849 123.226 17.2418C123.932 17.8967 124.805 18.2287 125.82 18.2287C126.834 18.2287 127.71 17.8967 128.425 17.2428C129.144 16.5849 129.509 15.751 129.509 14.7641C129.509 13.7966 129.154 12.9555 128.454 12.2643C127.756 11.5744 126.869 11.2247 125.82 11.2247ZM110.698 20.2995V47.9642H116.883V12.0137H108.323L97.4424 38.7166L86.8834 12.0137H77.9746V47.9642H83.7868V20.2968H83.9866L95.1366 47.9642H99.5229L110.499 20.2995H110.698Z" fill="#6F6F6F"/>
<path d="M28.5102 28.5102H0V0H28.5102V28.5102Z" fill="#6F6F6F"/>
<path d="M59.9888 28.5102H31.479V0H59.9888V28.5102Z" fill="#6F6F6F"/>
<path d="M28.5095 59.9999H0V31.4897H28.5095V59.9999Z" fill="#6F6F6F"/>
<path d="M59.9888 59.9999H31.479V31.4897H59.9888V59.9999Z" fill="#6F6F6F"/>
</g>
<defs>
<clipPath id="clip0_1699_13434">
<rect width="281.043" height="60" fill="white"/>
</clipPath>
</defs>
</svg>
