<svg width="234" height="32" viewBox="0 0 234 32" fill="none" xmlns="http://www.w3.org/2000/svg">
<path d="M100.91 20.375H116.294L108.131 7.34587L93.2187 31.05H86.4687L104.5 2.65628C105.285 1.55836 106.542 0.772949 108.11 0.772949C109.523 0.772949 110.777 1.39795 111.565 2.50212L129.773 30.9146H123.042L119.902 25.5771H104.36L100.91 20.375ZM171.394 25.5563V0.910449H165.583V27.9104C165.583 28.6959 165.896 29.3229 166.369 29.9521C166.994 30.5771 167.625 30.8938 168.41 30.8938H194.625L198.079 25.5563H171.394ZM76.2645 21.1813C81.9166 21.1813 86.3104 16.6292 86.3104 11.1355C86.3104 5.48337 81.7583 1.08962 76.2645 1.08962H51.1458V31.073H56.9541V6.2667H75.9479C77.2362 6.27435 78.4697 6.78955 79.3807 7.70057C80.2917 8.61159 80.8069 9.84501 80.8146 11.1334C80.8069 12.4214 80.292 13.6545 79.3814 14.5654C78.4708 15.4764 77.238 15.9918 75.95 16H59.7833L76.8937 30.9125H85.2146L73.5979 21.1792L76.2645 21.1813ZM15.5146 30.9146C7.19372 30.9146 0.602051 24.1646 0.602051 16.0021C0.602051 7.68128 7.35205 1.08962 15.5146 1.08962H32.9396C41.2604 1.08962 47.8521 7.83962 47.8521 16.0021C47.8521 24.323 41.1021 30.9146 32.9396 30.9146H15.5146ZM32.625 25.5771C35.2017 25.5618 37.6685 24.5314 39.4906 22.7094C41.3126 20.8873 42.343 18.4205 42.3583 15.8438C42.343 13.2671 41.3126 10.8002 39.4906 8.97819C37.6685 7.15614 35.2017 6.12576 32.625 6.11045H15.9854C13.4087 6.12576 10.9418 7.15614 9.11979 8.97819C7.29774 10.8002 6.26736 13.2671 6.25205 15.8438C6.26736 18.4205 7.29774 20.8873 9.11979 22.7094C10.9418 24.5314 13.4087 25.5618 15.9854 25.5771H32.625ZM141.881 30.9146C133.56 30.9146 126.969 24.1646 126.969 16.0021C126.969 7.68128 133.719 1.08962 141.881 1.08962H162.602L159.148 6.42712H142.194C139.617 6.44242 137.15 7.47281 135.328 9.29486C133.506 11.1169 132.476 13.5837 132.46 16.1604C132.476 18.7372 133.506 21.204 135.328 23.026C137.15 24.8481 139.617 25.8785 142.194 25.8938H162.915L159.46 31.2313H141.877L141.881 30.9146ZM212.365 25.5771C207.99 25.5771 204.202 22.5938 203.102 18.5146H227.748L231.202 13.1771H203.26C204.358 9.09378 208.127 6.11461 212.523 6.11461H229.477L232.931 0.777118H212.208C203.887 0.777118 197.296 7.52712 197.296 15.6896C197.296 24.0105 204.046 30.6021 212.208 30.6021H229.948L233.402 25.2646H212.367L212.365 25.5771Z" fill="#E30613"/>
</svg>
