<svg width="250" height="60" viewBox="0 0 250 60" fill="none" xmlns="http://www.w3.org/2000/svg">
<path d="M108.91 34.375H124.294L116.131 21.3459L101.219 45.05H94.4687L112.5 16.6563C113.285 15.5584 114.542 14.7729 116.11 14.7729C117.523 14.7729 118.777 15.3979 119.565 16.5021L137.773 44.9146H131.042L127.902 39.5771H112.36L108.91 34.375ZM179.394 39.5563V14.9104H173.583V41.9104C173.583 42.6959 173.896 43.3229 174.369 43.9521C174.994 44.5771 175.625 44.8938 176.41 44.8938H202.625L206.079 39.5563H179.394ZM84.2645 35.1813C89.9166 35.1813 94.3104 30.6292 94.3104 25.1355C94.3104 19.4834 89.7583 15.0896 84.2645 15.0896H59.1458V45.073H64.9541V20.2667H83.9479C85.2362 20.2744 86.4697 20.7895 87.3807 21.7006C88.2917 22.6116 88.8069 23.845 88.8146 25.1334C88.8069 26.4214 88.292 27.6545 87.3814 28.5654C86.4708 29.4764 85.238 29.9918 83.95 30H67.7833L84.8937 44.9125H93.2146L81.5979 35.1792L84.2645 35.1813ZM23.5146 44.9146C15.1937 44.9146 8.60205 38.1646 8.60205 30.0021C8.60205 21.6813 15.3521 15.0896 23.5146 15.0896H40.9396C49.2604 15.0896 55.8521 21.8396 55.8521 30.0021C55.8521 38.323 49.1021 44.9146 40.9396 44.9146H23.5146ZM40.625 39.5771C43.2017 39.5618 45.6685 38.5314 47.4906 36.7094C49.3126 34.8873 50.343 32.4205 50.3583 29.8438C50.343 27.2671 49.3126 24.8002 47.4906 22.9782C45.6685 21.1561 43.2017 20.1258 40.625 20.1105H23.9854C21.4087 20.1258 18.9418 21.1561 17.1198 22.9782C15.2977 24.8002 14.2674 27.2671 14.2521 29.8438C14.2674 32.4205 15.2977 34.8873 17.1198 36.7094C18.9418 38.5314 21.4087 39.5618 23.9854 39.5771H40.625ZM149.881 44.9146C141.56 44.9146 134.969 38.1646 134.969 30.0021C134.969 21.6813 141.719 15.0896 149.881 15.0896H170.602L167.148 20.4271H150.194C147.617 20.4424 145.15 21.4728 143.328 23.2949C141.506 25.1169 140.476 27.5837 140.46 30.1604C140.476 32.7372 141.506 35.204 143.328 37.026C145.15 38.8481 147.617 39.8785 150.194 39.8938H170.915L167.46 45.2313H149.877L149.881 44.9146ZM220.365 39.5771C215.99 39.5771 212.202 36.5938 211.102 32.5146H235.748L239.202 27.1771H211.26C212.358 23.0938 216.127 20.1146 220.523 20.1146H237.477L240.931 14.7771H220.208C211.887 14.7771 205.296 21.5271 205.296 29.6896C205.296 38.0105 212.046 44.6021 220.208 44.6021H237.948L241.402 39.2646H220.367L220.365 39.5771Z" fill="#6F6F6F"/>
</svg>
